<svg width="100" height="107" fill="none" xmlns="http://www.w3.org/2000/svg"><path d="M76.357 62.846l.055-.07a12.634 12.634 0 002.21-3.149.5.5 0 01.9.436 13.586 13.586 0 01-2.384 3.4.5.5 0 01-.823-.54l.042-.077zm3.05-11.297a.5.5 0 01.637.306 10.36 10.36 0 01.577 4.162.499.499 0 11-.997-.067 9.373 9.373 0 00-.523-3.763.502.502 0 01.306-.638zm-9.514 15.432a18.815 18.815 0 003.49-1.73.5.5 0 01.537.843 19.796 19.796 0 01-3.676 1.823.499.499 0 11-.35-.936zm4.438-21.525l.05-.075a.5.5 0 01.703-.077c1.148.92 2.12 1.89 2.916 2.903a.5.5 0 11-.786.618c-.747-.95-1.666-1.867-2.755-2.742a.501.501 0 01-.162-.547l.034-.08zM62.267 68.322a22.34 22.34 0 003.897-.33.5.5 0 01.172.985 23.383 23.383 0 01-4.072.344.5.5 0 01.003-1zm-7.77-1.328c1.26.43 2.53.754 3.799.975a.5.5 0 11-.172.985 25.877 25.877 0 01-3.95-1.014.5.5 0 11.323-.946zm13.514-25.745a27.907 27.907 0 013.672 1.764.499.499 0 11-.497.867 27.005 27.005 0 00-3.54-1.7.5.5 0 11.365-.93zM46.697 63.588l.044-.079a.5.5 0 01.697-.125 30.203 30.203 0 003.368 2.032.5.5 0 01-.46.888 30.97 30.97 0 01-3.479-2.1.495.495 0 01-.199-.534l.029-.082zM60.03 39.546a24.63 24.63 0 014.05.52.498.498 0 11-.21.977 23.806 23.806 0 00-3.885-.498.5.5 0 11.045-.999zm-8.05.87a29.345 29.345 0 014.002-.733.5.5 0 11.11.994 28.43 28.43 0 00-3.865.708.499.499 0 11-.247-.969zM40.776 58.111a.502.502 0 01.707.03 38.549 38.549 0 002.815 2.769.5.5 0 11-.664.748 39.911 39.911 0 01-2.888-2.84.5.5 0 01.03-.707zm3.607-14.809a42.055 42.055 0 013.701-1.64.502.502 0 01.647.287.502.502 0 01-.287.647 40.12 40.12 0 00-3.613 1.6.5.5 0 11-.448-.894zm-8.38 8.485a.501.501 0 01.693.146 50.71 50.71 0 002.287 3.233.5.5 0 11-.793.61 51.808 51.808 0 01-2.332-3.297.499.499 0 01.146-.692zm1.476-4.327a60.57 60.57 0 013.377-2.207.5.5 0 01.518.856 59.166 59.166 0 00-3.322 2.17.5.5 0 11-.573-.819zm-6.344 4.983a84.542 84.542 0 013.098-2.565.5.5 0 11.618.786 83.231 83.231 0 00-3.061 2.535.5.5 0 01-.655-.755zm1.017-7.666a.5.5 0 01.668.233 66.158 66.158 0 001.827 3.524.501.501 0 01-.874.488 68.03 68.03 0 01-1.855-3.578.501.501 0 01.234-.667zm-6.877 13.166c.964-.971 1.923-1.906 2.875-2.801a.5.5 0 11.685.728c-.943.888-1.893 1.813-2.849 2.778a.5.5 0 01-.711-.705zm23.26-48.125a28.983 28.983 0 013.936-1.036.5.5 0 01.186.983 27.936 27.936 0 00-3.8 1 .5.5 0 01-.322-.947zM11.21 67.399a.499.499 0 01.426.478l-.005.09-1.063 7.192 1.589-2.048a.499.499 0 01.838.536l-.048.076-1.59 2.05 6.7-2.828a.5.5 0 01.614.186l.042.08a.503.503 0 01-.187.613l-.079.042-8.459 3.57a.5.5 0 01-.694-.447L9.3 76.9l1.341-9.08a.5.5 0 01.568-.421h.002zm8.527-3.509l.054-.073a150.959 150.959 0 012.698-2.972.5.5 0 01.731.681c-.888.953-1.782 1.936-2.68 2.953a.5.5 0 01-.841-.51l.038-.079zm-5.168 6.132l.051-.075a178.373 178.373 0 012.55-3.091.5.5 0 11.763.644c-.84.997-1.686 2.023-2.536 3.075a.5.5 0 01-.863-.473l.035-.08zm15.007-32.698a.5.5 0 01.571.417c.2 1.299.549 2.55 1.045 3.735a.5.5 0 01-.922.386 16.977 16.977 0 01-1.112-3.968.5.5 0 01.418-.57zm11.76-23.893a29.849 29.849 0 013.503-2.067.5.5 0 11.449.893 28.802 28.802 0 00-3.386 1.998.501.501 0 01-.566-.825zM30.228 29.374a.5.5 0 01.362.607 21.163 21.163 0 00-.612 3.86.5.5 0 01-.998-.062 22.12 22.12 0 01.64-4.043.5.5 0 01.608-.362zm4.983-10.356l.051-.075a30.086 30.086 0 012.818-2.933.5.5 0 01.672.74 29.375 29.375 0 00-2.722 2.836.5.5 0 01-.854-.488l.035-.08zm-2.343 3.22a.5.5 0 01.847.53 26.65 26.65 0 00-1.835 3.473.5.5 0 01-.917-.4 27.549 27.549 0 011.905-3.602z" fill="#004157"/></svg>