<svg width="85" height="65" fill="none" xmlns="http://www.w3.org/2000/svg"><path class="draw-path" d="M36.635 59.952l-.089.01a12.635 12.635 0 01-3.841.204.5.5 0 00-.108.994c1.334.144 2.732.069 4.147-.218a.5.5 0 00-.021-.984l-.088-.006zM25.44 56.55a.5.5 0 00-.078.702 10.363 10.363 0 003.223 2.695.499.499 0 10.471-.881 9.371 9.371 0 01-2.913-2.438.502.502 0 00-.703-.078zm18.128.113a18.823 18.823 0 01-3.317 2.042.5.5 0 00.431.902 19.795 19.795 0 003.495-2.15.499.499 0 10-.609-.794zm-20.603-7.647l-.09.002a.5.5 0 00-.438.555c.171 1.46.478 2.8.915 4.012a.5.5 0 10.94-.34c-.409-1.137-.7-2.402-.863-3.79a.501.501 0 00-.378-.426l-.086-.014zm25.784 1.892a22.344 22.344 0 01-2.346 3.129.5.5 0 00.744.668 23.33 23.33 0 002.45-3.27.5.5 0 00-.848-.527zm2.992-7.292a25.034 25.034 0 01-1.186 3.738.5.5 0 10.926.377c.506-1.241.92-2.54 1.234-3.888a.5.5 0 10-.974-.227zm-28.992-2.19a27.894 27.894 0 00-.452 4.048.499.499 0 10.999.039c.053-1.34.198-2.64.435-3.902a.5.5 0 10-.982-.185zm30.24-6.23l-.09-.004a.5.5 0 00-.476.524 30.195 30.195 0 01-.062 3.933.5.5 0 00.996.082c.11-1.323.131-2.677.064-4.064a.495.495 0 00-.347-.452l-.085-.019zm-27.454-1.44a24.644 24.644 0 00-1.706 3.71.498.498 0 10.94.34 23.8 23.8 0 011.637-3.558.5.5 0 10-.87-.492zm5.006-6.365a29.33 29.33 0 00-2.744 3.005.5.5 0 10.785.62 28.416 28.416 0 012.649-2.902.499.499 0 10-.69-.723zm20.943-.12a.502.502 0 00-.35.616 38.55 38.55 0 01.856 3.855.5.5 0 10.986-.166 39.861 39.861 0 00-.877-3.954.5.5 0 00-.615-.35zm-14.47-4.791a42.04 42.04 0 00-3.354 2.268.502.502 0 00-.099.701c.166.22.48.264.701.1a40.3 40.3 0 013.273-2.216.5.5 0 10-.521-.853zm11.637-2.607a.501.501 0 00-.244.665 50.657 50.657 0 011.53 3.652.501.501 0 00.937-.348 51.823 51.823 0 00-1.56-3.726.499.499 0 00-.663-.243zm-4.45-1.043a60.623 60.623 0 00-3.663 1.694.5.5 0 00.45.893 59.206 59.206 0 013.603-1.666.5.5 0 10-.39-.92zm7.587-2.737a84.513 84.513 0 00-3.817 1.267.5.5 0 10.338.94 83.06 83.06 0 013.773-1.251.501.501 0 00-.294-.956zm-7.04-3.202a.5.5 0 00-.156.69 66.116 66.116 0 012.02 3.417.501.501 0 00.877-.482 68.143 68.143 0 00-2.05-3.47.501.501 0 00-.69-.155zm14.81 1.149c-1.335.303-2.635.62-3.9.952a.5.5 0 10.255.967c1.253-.329 2.541-.644 3.866-.942a.5.5 0 00-.22-.977zM6.422 8.25a28.983 28.983 0 00-2.965 2.787.5.5 0 00.735.68 27.959 27.959 0 012.863-2.693.5.5 0 00-.632-.775zm68.611-1.122a.5.5 0 00.18.614l.08.043 6.66 2.912-2.578.26a.5.5 0 00.01.996h.09l2.58-.261-5.949 4.182a.5.5 0 00-.168.617l.045.079c.142.2.405.266.62.166l.077-.044 7.511-5.28a.5.5 0 00-.01-.826l-.078-.041-8.41-3.676a.5.5 0 00-.658.258h-.002zm-7.495 5.369l-.091.007c-1.347.224-2.664.462-3.95.712a.5.5 0 00.19.981c1.278-.248 2.586-.484 3.925-.708a.5.5 0 00.012-.983l-.086-.01zm7.939-1.131l-.09.004c-1.35.162-2.674.336-3.974.522a.5.5 0 10.142.989 190.95 190.95 0 013.952-.52.5.5 0 00.056-.982l-.086-.013zm-35.681-4.61a.5.5 0 00.05.705 15.95 15.95 0 012.614 2.866.5.5 0 00.816-.577A16.976 16.976 0 0040.5 6.704a.5.5 0 00-.705.052zM13.3 4.06a29.853 29.853 0 00-3.61 1.874.5.5 0 10.52.854 28.807 28.807 0 013.49-1.812.501.501 0 00-.399-.917H13.3zm19.408-.968a.5.5 0 00.323.628c1.271.41 2.476.92 3.597 1.528a.5.5 0 00.477-.879 22.126 22.126 0 00-3.768-1.6.5.5 0 00-.63.323zM21.286 1.83l-.09.003a30.08 30.08 0 00-3.981.835.5.5 0 00.27.962 29.388 29.388 0 013.849-.806.5.5 0 00.039-.982l-.087-.012zm3.973-.28a.5.5 0 100 1c1.329 0 2.64.094 3.917.283a.5.5 0 00.147-.989 27.548 27.548 0 00-4.064-.294z" fill="#004157"/></svg>