<svg width="133" height="130" fill="none" xmlns="http://www.w3.org/2000/svg"><path d="M82.329 34.56l-.08-.084c-1.073-1.336-2.277-2.472-3.575-3.372-.29-.2-.375-.586-.19-.86.187-.277.572-.337.86-.137 1.41.975 2.71 2.202 3.862 3.638.22.275.185.66-.079.863a.624.624 0 01-.708.018l-.09-.067zm-13.536-6.176a.576.576 0 01.471-.707 13.08 13.08 0 015.234.21.658.658 0 01.497.748.582.582 0 01-.726.448 11.832 11.832 0 00-4.731-.188.67.67 0 01-.745-.511zM86.506 43.31a24.362 24.362 0 00-1.635-4.615.586.586 0 01.291-.805c.31-.129.682.023.831.338a25.625 25.625 0 011.722 4.862.575.575 0 01-.455.717.667.667 0 01-.754-.497zm-25.99-10.097l-.086-.078c-.24-.256-.238-.647.007-.87 1.305-1.192 2.648-2.16 4.016-2.905.293-.16.676-.046.856.255.18.3.088.674-.206.835-1.284.699-2.552 1.614-3.792 2.745a.616.616 0 01-.7.077l-.095-.06zm26.541 19.65a27.04 27.04 0 00.157-4.803.576.576 0 01.587-.614.67.67 0 01.658.62c.093 1.66.04 3.34-.165 5.02a.58.58 0 01-.694.495.661.661 0 01-.543-.717zm-2.772 9.144a28.757 28.757 0 001.76-4.4c.098-.32.444-.484.775-.366.329.116.516.47.418.79a29.73 29.73 0 01-1.83 4.575c-.147.297-.52.405-.83.24-.31-.166-.442-.541-.293-.84zm-29.892-22.04a31.561 31.561 0 012.715-4.073c.204-.261.595-.295.87-.076.278.219.336.608.131.869a30.545 30.545 0 00-2.617 3.925c-.162.29-.54.382-.842.204-.305-.179-.42-.558-.257-.85zm24.544 30.766l-.09-.071c-.259-.242-.282-.631-.054-.873a34.059 34.059 0 003.003-3.645c.193-.27.58-.321.865-.114.286.207.361.595.168.866a34.942 34.942 0 01-3.104 3.764.602.602 0 01-.69.126l-.098-.053zM51.125 49.286a28.768 28.768 0 011.233-4.804c.11-.315.462-.466.789-.336.325.128.5.488.39.804a27.797 27.797 0 00-1.182 4.608.582.582 0 01-.715.467.664.664 0 01-.515-.74zm-.093 9.964a36.122 36.122 0 01-.325-5.02.576.576 0 01.627-.573.667.667 0 01.619.657c-.01 1.576.093 3.192.314 4.848a.574.574 0 01-.536.66.67.67 0 01-.699-.572zM71.3 76.725c-.201-.288-.138-.67.14-.852a43.91 43.91 0 003.835-2.812c.256-.21.65-.166.88.103.228.267.207.656-.05.866a45.443 45.443 0 01-3.934 2.885c-.28.182-.669.098-.871-.19zm-17.8-7.62a54.049 54.049 0 01-1.493-4.853.58.58 0 01.45-.722.67.67 0 01.759.49 51.753 51.753 0 001.455 4.737.58.58 0 01-.374.766.663.663 0 01-.797-.418zm9.282 12.03a.587.587 0 01.281-.809 58.88 58.88 0 004.332-2.069c.296-.157.678-.038.856.263.176.304.08.676-.216.833a60.165 60.165 0 01-4.418 2.111.655.655 0 01-.835-.328zm-5.14-2.737a79.9 79.9 0 01-2.24-4.584.583.583 0 01.309-.796.659.659 0 01.825.354 78.012 78.012 0 002.203 4.509c.164.309.05.675-.252.818a.657.657 0 01-.845-.301zm5.245 8.793a113.009 113.009 0 01-2.725-4.323.59.59 0 01.206-.834c.292-.16.676-.046.856.255.84 1.404 1.738 2.827 2.692 4.271.194.294.12.672-.165.847-.284.172-.67.077-.864-.216zm-9.339-2.913a.58.58 0 01.385-.76 78.36 78.36 0 004.626-1.447c.319-.11.684.06.816.383a.584.584 0 01-.339.785 80.895 80.895 0 01-4.696 1.47.665.665 0 01-.792-.43zm15.293 11.23a157.1 157.1 0 01-3.05-4.103c-.204-.286-.146-.668.13-.853.276-.187.666-.106.871.18.962 1.34 1.969 2.696 3.025 4.067.214.28.17.666-.1.86-.27.196-.66.129-.876-.15zm-56.17-38.77a36.199 36.199 0 01-.71-5.005.575.575 0 01.577-.623.67.67 0 01.665.612c.115 1.624.345 3.237.686 4.832a.578.578 0 01-.48.703.668.668 0 01-.739-.519zm65.828 57.916a.58.58 0 01.653-.412l.11.026 8.745 2.864-2.303-2.377c-.246-.252-.25-.643-.009-.87a.619.619 0 01.793-.031l.087.076 2.306 2.377-2.525-8.753a.578.578 0 01.318-.703l.105-.035c.294-.065.6.093.732.362l.04.105 3.188 11.051a.581.581 0 01-.653.746l-.108-.027-11.04-3.615c-.332-.109-.53-.458-.44-.782v-.002zm-3.104-11.12l-.083-.081a202.897 202.897 0 01-3.286-3.926c-.223-.273-.19-.66.072-.864.263-.204.656-.147.878.124a202.713 202.713 0 003.264 3.902c.23.267.208.655-.048.866a.617.617 0 01-.706.043l-.091-.064zm6.837 7.616l-.085-.078a240.573 240.573 0 01-3.456-3.772c-.235-.262-.223-.65.028-.867.25-.218.645-.181.88.081a258.743 258.743 0 003.437 3.751c.241.258.237.648-.008.871a.617.617 0 01-.702.074l-.094-.06zm-38.28-25.375a.576.576 0 01.598-.602 19.648 19.648 0 004.774-.451.666.666 0 01.771.47.576.576 0 01-.427.734 20.91 20.91 0 01-5.072.482.669.669 0 01-.645-.633zM16.094 66.27a39.088 39.088 0 01-2.049-4.705.58.58 0 01.373-.767.662.662 0 01.798.418 37.738 37.738 0 001.98 4.548c.16.311.043.676-.26.817a.657.657 0 01-.843-.31l.001-.001zM34.21 83.246c.123-.31.482-.447.803-.306a28.002 28.002 0 004.688 1.587.661.661 0 01.502.745.582.582 0 01-.724.453 29.274 29.274 0 01-4.91-1.662c-.321-.14-.483-.507-.359-.817zM22.12 74.93l-.085-.079a40.592 40.592 0 01-3.22-4.063c-.201-.288-.137-.668.143-.849.28-.18.67-.094.87.194a39.682 39.682 0 003.113 3.927c.236.262.225.652-.025.87a.617.617 0 01-.703.06l-.093-.06zm3.645 3.55c-.268-.23-.312-.62-.097-.872.216-.252.608-.27.876-.041a36.212 36.212 0 004.029 2.988c.297.191.397.573.223.856-.173.284-.554.36-.852.169a37.427 37.427 0 01-4.18-3.1z" fill="#004157"/></svg>