<svg width="100" height="107" fill="none" xmlns="http://www.w3.org/2000/svg"><path d="M23.303 62.846l-.055-.07a12.633 12.633 0 01-2.21-3.149.5.5 0 00-.9.436 13.588 13.588 0 002.384 3.4.5.5 0 00.823-.54l-.042-.077zm-3.05-11.297a.5.5 0 00-.637.306 10.361 10.361 0 00-.577 4.162.499.499 0 10.997-.067 9.372 9.372 0 01.523-3.763.502.502 0 00-.306-.638zm9.514 15.432a18.809 18.809 0 01-3.49-1.73.5.5 0 00-.537.843 19.793 19.793 0 003.676 1.823.499.499 0 10.35-.936zm-4.439-21.525l-.05-.075a.5.5 0 00-.702-.077c-1.148.92-2.12 1.89-2.916 2.903a.5.5 0 10.786.618c.747-.95 1.666-1.867 2.755-2.741a.501.501 0 00.162-.548l-.035-.08zm12.065 22.866a22.348 22.348 0 01-3.897-.33.5.5 0 00-.172.985c1.326.231 2.689.348 4.072.344a.5.5 0 00-.003-1zm7.77-1.328c-1.26.43-2.53.755-3.8.975a.5.5 0 10.173.985 25.89 25.89 0 003.95-1.014.5.5 0 10-.323-.946zM31.649 41.249a27.882 27.882 0 00-3.672 1.764.499.499 0 10.497.867 26.994 26.994 0 013.54-1.7.5.5 0 10-.365-.93zm21.314 22.339l-.044-.079a.5.5 0 00-.697-.125 30.197 30.197 0 01-3.368 2.032.5.5 0 00.46.888 30.952 30.952 0 003.478-2.1.495.495 0 00.2-.534l-.029-.082zM39.63 39.546a24.639 24.639 0 00-4.05.52.5.5 0 00.21.977 23.815 23.815 0 013.885-.498.5.5 0 10-.045-.999zm8.05.87a29.315 29.315 0 00-4.002-.733.5.5 0 10-.11.994c1.272.141 2.56.377 3.865.708a.499.499 0 10.247-.969zm11.204 17.695a.502.502 0 00-.707.03 38.549 38.549 0 01-2.815 2.77.5.5 0 10.664.747 39.715 39.715 0 002.888-2.84.5.5 0 00-.03-.707zm-3.607-14.809a42.028 42.028 0 00-3.702-1.64.502.502 0 00-.646.287.502.502 0 00.287.647c1.191.457 2.396.99 3.613 1.6a.5.5 0 10.448-.894zm8.38 8.486a.501.501 0 00-.693.145 50.68 50.68 0 01-2.287 3.233.5.5 0 10.792.61 51.85 51.85 0 002.333-3.297.499.499 0 00-.146-.691zM62.18 47.46a60.661 60.661 0 00-3.377-2.207.5.5 0 00-.518.856 59.22 59.22 0 013.322 2.17.5.5 0 10.573-.819zm6.344 4.984a84.542 84.542 0 00-3.098-2.566.5.5 0 10-.619.786 83.147 83.147 0 013.062 2.535.5.5 0 00.655-.755zm-1.017-7.667a.5.5 0 00-.668.233 66.157 66.157 0 01-1.827 3.524.5.5 0 10.874.488 68.18 68.18 0 001.855-3.578.501.501 0 00-.234-.667zm6.877 13.167a116.818 116.818 0 00-2.875-2.802.5.5 0 10-.685.728 111.56 111.56 0 012.849 2.778.501.501 0 00.711-.704zM51.125 9.818a28.983 28.983 0 00-3.936-1.036.5.5 0 00-.186.983c1.294.245 2.562.579 3.8 1a.5.5 0 00.322-.947zM88.45 67.4a.5.5 0 00-.426.477l.005.09 1.062 7.192-1.588-2.048a.5.5 0 00-.838.536l.048.076 1.59 2.05-6.7-2.828a.499.499 0 00-.613.186l-.043.08a.503.503 0 00.187.613l.079.042 8.459 3.57a.5.5 0 00.694-.447l-.006-.088-1.342-9.08a.5.5 0 00-.567-.421h-.001zm-8.527-3.51l-.054-.073a151.255 151.255 0 00-2.698-2.972.5.5 0 00-.731.681c.888.953 1.782 1.936 2.68 2.953a.5.5 0 00.841-.51l-.038-.079zm5.168 6.132l-.051-.074a179.307 179.307 0 00-2.55-3.092.5.5 0 10-.763.644c.84.997 1.686 2.023 2.535 3.075a.5.5 0 00.864-.473l-.035-.08zM70.084 37.324a.5.5 0 00-.571.417c-.2 1.299-.549 2.55-1.045 3.735a.5.5 0 00.922.386c.528-1.261.9-2.59 1.112-3.968a.5.5 0 00-.418-.57zM58.324 13.43a29.865 29.865 0 00-3.503-2.067.5.5 0 10-.449.893 28.803 28.803 0 013.386 1.998.501.501 0 00.566-.825v.001zm11.109 15.943a.5.5 0 00-.362.607c.327 1.295.533 2.587.612 3.86a.5.5 0 00.998-.062 22.13 22.13 0 00-.64-4.043.5.5 0 00-.608-.362zm-4.984-10.356l-.05-.075a30.076 30.076 0 00-2.819-2.933.5.5 0 00-.672.74 29.411 29.411 0 012.723 2.836.5.5 0 00.854-.488l-.035-.08zm2.344 3.22a.5.5 0 10-.847.53 26.673 26.673 0 011.835 3.473.5.5 0 00.917-.4 27.561 27.561 0 00-1.905-3.602z" fill="#004157"/></svg>