<svg width="112" height="108" fill="none" xmlns="http://www.w3.org/2000/svg"><path d="M69.855 102.376H41.91c-25.29 0-36.095-10.44-36.095-34.875v-27c0-24.435 10.805-34.875 36.095-34.875h27.944c25.29 0 36.094 10.44 36.094 34.875v27c0 24.435-10.805 34.875-36.094 34.875zm-27.944-90c-21.47 0-29.109 7.38-29.109 28.125v27c0 20.745 7.639 28.125 29.109 28.125h27.944c21.47 0 29.108-7.38 29.108-28.125v-27c0-20.745-7.638-28.125-29.108-28.125H41.91z" fill="#DDD"/><path d="M72.182 47.25c-5.775 0-10.479-4.545-10.479-10.125S66.407 27 72.183 27c5.774 0 10.478 4.545 10.478 10.125S77.957 47.25 72.182 47.25zm0-13.5c-1.91 0-3.493 1.53-3.493 3.375s1.584 3.375 3.493 3.375c1.91 0 3.493-1.53 3.493-3.375s-1.583-3.375-3.493-3.375zm-32.598 13.5c-5.775 0-10.479-4.545-10.479-10.125S33.81 27 39.585 27s10.478 4.545 10.478 10.125S45.36 47.25 39.584 47.25zm0-13.5c-1.909 0-3.492 1.53-3.492 3.375s1.583 3.375 3.492 3.375c1.91 0 3.493-1.53 3.493-3.375s-1.583-3.375-3.492-3.375zm16.308 53.776c-13.506 0-24.45-10.62-24.45-23.625 0-4.095 3.446-7.425 7.684-7.425h33.533c4.238 0 7.684 3.33 7.684 7.425 0 13.005-10.944 23.625-24.45 23.625zm-16.766-24.3c-.373 0-.699.315-.699.675 0 9.315 7.825 16.875 17.465 16.875 9.641 0 17.465-7.56 17.465-16.875 0-.36-.326-.675-.698-.675H39.126z" fill="#DDD"/></svg>