<svg width="142" height="179" fill="none" xmlns="http://www.w3.org/2000/svg"><path d="M46.218 2.887a10 10 0 0110 0l41.219 23.797a10 10 0 015 8.66V82.94a10 10 0 01-5 8.66l-41.22 23.8a10 10 0 01-10 0L5 91.601a10 10 0 01-5-8.66V35.344a10 10 0 015-8.66L46.218 2.887z" fill="#203876"/><path d="M136.447 124.319a8 8 0 014 6.929v25.503a8 8 0 01-4 6.928l-22.086 12.751a8 8 0 01-8 0l-22.086-12.751a8 8 0 01-4-6.928v-25.503a8 8 0 014-6.929l22.086-12.751a8 8 0 018 0l22.086 12.751z" stroke="#203876" stroke-width="2.182"/></svg>