<svg width="21" height="18" fill="none" xmlns="http://www.w3.org/2000/svg"><path fill-rule="evenodd" clip-rule="evenodd" d="M13.464 6.54h-.122a23.22 23.22 0 00-5.947.785l-.026.007a1.019 1.019 0 00-.748.938l-.001.077c-.055 2.279.475 4.221 1.591 5.823 1.219 1.747 2.903 2.753 5.037 3.009l.094.01.091-.01c2.136-.256 3.82-1.262 5.038-3.01 1.116-1.6 1.647-3.543 1.592-5.821l-.001-.077-.002-.026a1.02 1.02 0 00-.743-.912l-.026-.008-.126-.033a23.213 23.213 0 00-5.702-.751z" fill="#FFCA3D"/><path clip-rule="evenodd" d="M9.537 7.106V.936l-7.405 9.05h4.525v6.171l7.405-9.05H9.537z" stroke="#004157" stroke-opacity=".2" stroke-width=".888" stroke-linecap="round" stroke-linejoin="round"/><path d="M.123.123A.42.42 0 01.67.083l.047.04 2.13 2.13a.42.42 0 01-.546.636l-.047-.041L.124.718a.42.42 0 010-.595zm2.13 13.635a.421.421 0 01.636.547l-.041.047-2.13 2.13a.42.42 0 01-.636-.546l.041-.048 2.13-2.13zm11.505 0a.42.42 0 01.547-.04l.047.04 2.13 2.13a.42.42 0 01-.546.636l-.048-.041-2.13-2.13a.421.421 0 010-.595zM15.888.123a.42.42 0 01.636.547l-.041.047-2.13 2.13a.421.421 0 01-.636-.546l.04-.047 2.131-2.13z" fill="#004157"/></svg>