<svg width="128" height="124" fill="none" xmlns="http://www.w3.org/2000/svg"><path d="M46.237 117.234H10.664c-2.187 0-4-1.752-4-3.865V82.451c0-7.833 6.56-14.172 14.667-14.172h24.906c2.187 0 4 1.752 4 3.865v41.225c0 2.113-1.813 3.865-4 3.865zm-31.573-7.729h27.573V76.009H21.331c-3.68 0-6.667 2.886-6.667 6.442v27.054z" fill="#DDD"/><path d="M81.76 117.234H46.188c-2.186 0-4-1.752-4-3.865V61.837c0-7.833 6.56-14.171 14.667-14.171h14.24c8.107 0 14.667 6.338 14.667 14.171v51.532c0 2.113-1.76 3.865-4 3.865zm-31.52-7.73h27.574V61.837c0-3.556-2.986-6.441-6.666-6.441h-14.24c-3.68 0-6.667 2.886-6.667 6.441v47.667z" fill="#DDD"/><path d="M117.335 117.235H81.762c-2.187 0-4-1.752-4-3.865V87.604c0-2.113 1.813-3.865 4-3.865h24.906c8.107 0 14.667 6.339 14.667 14.171v15.46c0 2.113-1.813 3.865-4 3.865zm-31.573-7.73h27.573V97.91c0-3.555-2.987-6.441-6.667-6.441H85.762v18.036zM73.064 43.029c-1.28 0-2.88-.361-4.694-1.392l-4.373-2.525-4.32 2.474c-4.373 2.525-7.254 1.03-8.32.309-1.067-.722-3.36-2.989-2.24-7.73l1.013-4.277-3.627-3.504c-2.24-2.165-3.04-4.741-2.24-7.112.8-2.37 2.987-4.02 6.08-4.534l4.64-.773 2.614-5.05c2.88-5.514 9.866-5.514 12.693 0l2.613 5.05 4.64.773c3.094.515 5.334 2.164 6.08 4.534.8 2.37-.053 4.948-2.24 7.112l-3.626 3.504 1.013 4.277c1.12 4.793-1.173 7.008-2.24 7.781-.48.413-1.707 1.083-3.466 1.083zM63.997 31.33c1.28 0 2.56.31 3.627.927l2.986 1.701-.64-2.783c-.533-2.164.267-4.792 1.92-6.39l2.72-2.628-3.36-.567c-2.133-.36-4.213-1.855-5.173-3.71l-2.08-3.865-2.027 3.865c-.96 1.855-3.04 3.35-5.173 3.71l-3.36.516 2.72 2.628c1.653 1.597 2.4 4.226 1.92 6.39l-.64 2.782 2.986-1.7c1.014-.619 2.294-.876 3.574-.876z" fill="#DDD"/></svg>