<svg width="75" height="75" fill="none" xmlns="http://www.w3.org/2000/svg"><path d="M37.577 59.845a2.336 2.336 0 01-2.32-2.32v-6.494a2.336 2.336 0 012.32-2.32 2.336 2.336 0 012.32 2.32v6.494a2.336 2.336 0 01-2.32 2.32z" fill="gray"/><path d="M55.36 70.36H19.793v-5.412a8.5 8.5 0 018.505-8.505h18.557a8.5 8.5 0 018.505 8.505v5.412zm-30.928-4.639h26.289v-.773a3.867 3.867 0 00-3.866-3.866H28.298a3.867 3.867 0 00-3.866 3.866v.773z" fill="gray"/><path d="M56.132 70.36H19.019a2.336 2.336 0 01-2.32-2.32 2.336 2.336 0 012.32-2.319h37.113a2.336 2.336 0 012.32 2.32 2.336 2.336 0 01-2.32 2.32zm.867-31.886c-.65 0-1.3-.278-1.763-.804-.588-.68-.742-1.64-.371-2.444 1.051-2.412 1.577-4.979 1.577-7.67v-9.278c0-1.082-.185-2.134-.557-3.247-.03-.093-.061-.217-.092-.34a6.958 6.958 0 01-.124-1.361 2.336 2.336 0 012.32-2.32h1.855c5.536 0 10.052 4.64 10.052 10.361 0 4.732-1.949 9.402-5.32 12.773-.062.062-.247.217-.278.248-1.825 1.515-3.897 3.216-6.68 3.99a2.142 2.142 0 01-.62.092zm3.866-22.732a14.1 14.1 0 01.216 2.536v9.279c0 1.268-.093 2.474-.278 3.71.186-.154.34-.277.526-.432 2.474-2.474 3.928-5.938 3.928-9.464 0-2.784-1.887-5.134-4.392-5.629zM17.26 38.35c-.248 0-.464-.03-.712-.124-2.536-.804-4.917-2.288-6.896-4.268-3.557-3.927-5.32-8.226-5.32-12.773 0-5.629 4.423-10.051 10.052-10.051h2.01c.773 0 1.515.402 1.948 1.051.433.65.495 1.485.186 2.196-.495 1.114-.742 2.382-.742 3.712v9.278c0 2.66.525 5.257 1.608 7.732.37.835.185 1.793-.402 2.474a2.372 2.372 0 01-1.732.773zM13.3 15.866c-2.505.494-4.33 2.66-4.33 5.32 0 3.37 1.361 6.618 4.052 9.587.123.154.278.278.433.402a22.543 22.543 0 01-.31-3.804v-9.278c0-.743.062-1.485.155-2.227z" fill="gray"/><path d="M37.113 51.803c-13.206 0-23.968-10.762-23.968-23.968v-9.279c0-8.103 6.587-14.69 14.69-14.69h18.557c8.103 0 14.69 6.587 14.69 14.69v9.279c0 13.206-10.763 23.968-23.969 23.968zM27.835 8.505c-5.536 0-10.051 4.515-10.051 10.051v9.279c0 10.67 8.66 19.33 19.33 19.33 10.67 0 19.33-8.66 19.33-19.33v-9.279c0-5.536-4.516-10.051-10.052-10.051H27.835z" fill="gray"/></svg>