<svg width="916" height="356" fill="none" xmlns="http://www.w3.org/2000/svg"><g clip-path="url(#clip0_3_21)"><path d="M891.076.76c2.183-.01 4.366-.041 6.549-.073l4.203-.015 3.81-.028C909.282 1.03 911.111 1.788 914 4c2.371 3.557 2.258 5.1 2.275 9.32l.029 3.954-.003 4.28.013 4.391c.007 3.068.007 6.137.002 9.205-.006 3.926.011 7.852.034 11.779.015 3.023.016 6.046.013 9.07 0 1.447.005 2.894.015 4.341a535.98 535.98 0 01-.006 6.081l.002 3.492c-.452 3.73-1.698 6.411-4.374 9.087-1.785.122-3.574.18-5.363.21-1.116.03-2.232.058-3.381.087-2.336.051-4.672.096-7.008.133-11.755.322-23.832 2.029-32.998 9.945-7.108 8.293-8.565 15.942-8.502 26.608l-.009 2.599c-.007 2.849-.001 5.697.006 8.546l-.011 6.157c-.008 4.406-.011 8.813-.008 13.22.002 6.966-.012 13.933-.029 20.9-.047 19.806-.071 39.612-.078 59.418-.004 10.948-.022 21.896-.055 32.845-.02 6.927-.023 13.854-.012 20.782.003 4.303-.011 8.607-.03 12.911-.005 1.998-.004 3.995.005 5.993.011 2.724-.002 5.447-.021 8.171l.027 2.401c-.051 3.7-.418 5.887-2.375 9.065-2.964 2.759-4.78 2.625-8.791 2.608l-1.992.012c-2.167.007-4.333-.022-6.5-.052-1.509-.005-3.019-.007-4.528-.007-3.161-.007-6.321-.029-9.482-.065-4.048-.045-8.096-.06-12.145-.064-3.116-.004-6.232-.019-9.348-.039-1.493-.008-2.985-.015-4.478-.02a726.025 726.025 0 01-6.261-.058l-3.597-.032c-2.996-.27-4.648-.468-7.036-2.274-2.323-4.369-2.281-8.631-2.254-13.459l-.009-2.576c-.008-2.846-.002-5.693.004-8.54-.002-2.042-.006-4.084-.01-6.126-.01-5.551-.006-11.101 0-16.651.005-5.819.001-11.638-.002-17.457-.004-9.786.001-19.571.01-29.356.011-11.279.008-22.559-.003-33.838-.01-9.701-.011-19.403-.006-29.104.004-5.786.004-11.571-.003-17.357-.005-5.454-.001-10.907.01-16.36.003-1.99.002-3.979-.002-5.968-.031-15.258.235-30.659 4.89-45.333l.788-2.528C790.747 45.765 813.003 24.935 839 11 855.318 2.725 873.048.809 891.076.76z" fill="#fff"/><path d="M614.453.684c2.139.004 4.277-.02 6.416-.045 1.378-.003 2.757-.003 4.135-.002l3.713-.01C633.258 1.144 635.813 2.814 639 6c.267 2.788.267 2.788.291 6.39l.02 1.986c.019 2.173.023 4.346.025 6.519l.02 4.529c.012 3.168.016 6.337.015 9.505-.001 4.055.027 8.11.061 12.166.022 3.12.026 6.24.025 9.36.003 1.495.012 2.99.027 4.484.02 2.095.014 4.188.002 6.283l.008 3.609C638.9 74.64 637.718 76.308 635 79c-2.65.612-2.65.612-5.656.602l-3.352.046-3.492-.023c-12.903 0-26.221.95-36.281 9.973-6.069 6.53-7.673 13.685-7.598 22.341l-.013 2.621c-.012 2.879-.002 5.758.007 8.638-.004 2.072-.009 4.144-.016 6.216-.012 4.452-.014 8.903-.01 13.355.007 7.038-.009 14.076-.028 21.114a26263.59 26263.59 0 00-.064 48.617c-.01 14.863-.027 29.726-.068 44.589a5877.21 5877.21 0 00-.015 20.995c.002 4.349-.009 8.697-.023 13.046-.004 2.019-.003 4.037.004 6.055.008 2.753-.002 5.505-.016 8.257l.02 2.427c-.059 5.822-1.32 9.052-5.399 13.131-2.788.267-2.788.267-6.39.291l-1.986.02c-2.173.019-4.346.023-6.519.025l-4.529.02c-3.168.012-6.337.016-9.505.015-4.055-.001-8.11.027-12.166.061-3.12.022-6.24.026-9.36.025-1.495.003-2.99.012-4.484.027-2.095.02-4.188.014-6.283.002l-3.609.008c-3.998-.623-5.412-1.529-8.169-4.494-.496-3.104-.668-5.659-.621-8.763l-.02-2.711c-.015-3.005.005-6.009.026-9.013-.004-2.152-.009-4.304-.017-6.456-.014-5.854.003-11.708.026-17.562.02-6.133.014-12.266.012-18.399 0-10.314.02-20.627.052-30.94a9646.6 9646.6 0 00.039-35.684c-.007-11.459.004-22.918.024-34.377.008-4.866.011-9.732.009-14.597-.001-5.749.013-11.498.039-17.247.007-2.099.009-4.198.006-6.298-.036-27.664 5.92-52.53 24.425-73.953l1.676-2.078C532.965 30.085 542.444 23.214 552 17l3.035-2c6.74-4.162 13.378-7.072 20.965-9.375l2.369-.723C590.226 1.538 602.196.646 614.453.684z" fill="#79AF42"/><path d="M660.162 59.746l2.642-.017 2.906.012 3.056-.01c3.346-.01 6.692-.003 10.039.003l6.958-.005c4.867-.003 9.734 0 14.602.01 6.243.012 12.487.005 18.73-.007 4.792-.007 9.584-.005 14.376 0 2.303.002 4.605 0 6.907-.005 3.218-.005 6.435.003 9.653.014l2.894-.012 2.659.017 2.305.002c2.496.298 4.018.855 6.111 2.252 2.335 3.28 2.251 6.315 2.254 10.258l.017 3.898-.012 4.273.01 4.505c.01 4.081.006 8.162 0 12.244-.005 4.283-.001 8.566.002 12.85.004 7.206-.001 14.412-.01 21.618-.011 8.295-.008 16.591.003 24.886.01 7.142.011 14.283.006 21.425-.004 4.256-.004 8.512.003 12.768.005 4.016.001 8.031-.01 12.046a914.32 914.32 0 00.002 4.382c.079 28.407-6.28 55.62-26.265 76.847l-2.48 2.719c-20.459 21.517-46.969 34.637-76.771 35.514a675.2 675.2 0 01-11.561.142l-2.308.024a451.97 451.97 0 01-6.587-.001l-3.89-.01c-3.65-.416-5.508-1.169-8.403-3.388-2.356-3.534-2.258-5.025-2.275-9.212l-.029-3.884.003-4.205-.013-4.316c-.007-3.017-.007-6.034-.002-9.051.006-3.857-.011-7.713-.034-11.57-.015-2.972-.016-5.945-.012-8.918a673.693 673.693 0 00-.016-4.264c-.013-1.993-.004-3.986.006-5.98l-.002-3.431c.429-3.632 1.489-6.051 3.374-9.169 2.645-1.322 4.685-1.144 7.645-1.176 23.313-.011 23.313-.011 43.355-10.824 7.292-8.635 7.312-18.668 7.414-29.469l.059-3.867c.049-3.366.091-6.733.128-10.1.04-3.446.091-6.892.141-10.337.096-6.743.181-13.485.258-20.227l-2.906.032c-3.552.036-7.104.059-10.656.078-1.538.01-3.077.024-4.615.041-2.209.024-4.418.035-6.628.044l-2.089.032c-1.704 0-3.407-.105-5.106-.227-2.659-2.659-2.246-4.638-2.271-8.255l.012-2.661-.01-2.799c-.009-3.064-.003-6.127.003-9.191l-.005-6.367c-.003-4.452.001-8.904.01-13.356.012-5.717.005-11.434-.007-17.151a4803.99 4803.99 0 010-13.15c.002-2.11 0-4.218-.005-6.326-.005-2.943.003-5.885.014-8.828l-.012-2.66c.041-5.792.244-8.504 6.433-8.51z" fill="#fff"/><path d="M423.212.725l3.884-.029c1.402 0 2.803.002 4.205.003l4.316-.013c3.017-.007 6.034-.007 9.051-.002 3.857.006 7.713-.01 11.57-.034 2.972-.015 5.945-.016 8.918-.013 1.421 0 2.842-.005 4.264-.015 1.993-.013 3.986-.004 5.98.006l3.431-.002c3.632.429 6.051 1.49 9.169 3.374 1.407 2.813 1.136 5.153 1.147 8.3l.011 1.982c.011 2.202.015 4.404.019 6.606l.02 4.726c.021 5.19.031 10.38.041 15.57l.013 5.372c.019 8.427.033 16.854.041 25.281.01 9.693.036 19.386.077 29.079.03 7.508.045 15.017.048 22.525.002 4.475.011 8.95.036 13.424.198 36.732-4.514 66.213-31.015 94.073C443.469 245.517 425.41 256.387 405 261l-2.296.519c-7.87 1.608-15.591 1.825-23.602 1.852l-4.222.027c-2.926.017-5.853.025-8.779.028-3.743.005-7.484.043-11.227.088-2.896.03-5.792.037-8.688.038-1.381.004-2.761.017-4.141.038a300.66 300.66 0 01-5.777.009l-3.311.016c-4.048-.842-5.504-2.327-7.957-5.615-.621-3.111-.621-3.111-.615-6.639l-.017-1.958c-.012-2.125.012-4.247.038-6.372.002-1.483.002-2.966 0-4.449.002-3.104.02-6.207.052-9.31.04-3.971.044-7.942.037-11.913-.004-3.061.009-6.122.026-9.183.007-1.464.01-2.928.009-4.392.002-2.049.023-4.097.05-6.145l.026-3.528c.436-3.443 1.334-5.343 3.394-8.111 2.48-1.24 4.159-1.138 6.934-1.158l3.117-.031 3.387-.022 7.089-.086c3.728-.041 7.456-.078 11.184-.104 3.597-.028 7.193-.074 10.789-.122l3.338-.01c10.957-.173 20.349-2.767 29.162-9.467 5.343-5.556 7.247-11.831 7.258-19.49l.021-3.899a5998.22 5998.22 0 00-.008-4.242l.016-4.495c.012-3.22.017-6.44.018-9.66.002-5.093.02-10.187.041-15.28.049-12.649.08-25.298.101-37.947.017-9.835.039-19.67.083-29.504.022-5.062.03-10.123.028-15.184.001-3.15.015-6.3.033-9.45.005-1.46.006-2.918.001-4.376-.006-1.994.008-3.989.023-5.983l.006-3.379C411.062 8.49 412.102 6.103 414 3c3.534-2.356 5.025-2.258 9.212-2.275zM327 273c2.63-.375 2.63-.375 6.036-.374l3.9-.021 4.304.023a2185.136 2185.136 0 0116.792.002c4.277.011 8.553.007 12.83.005 7.182-.001 14.365.01 21.548.029 8.312.021 16.625.024 24.938.018 7.985-.005 15.971 0 23.956.011 3.404.005 6.807.006 10.211.004a2673.8 2673.8 0 0112.016.022c1.473.004 2.946.005 4.419.002 2.005-.003 4.01.007 6.014.018l3.406.007C480 273 480 273 482 275c.254 1.853.254 1.853.259 4.127l.019 2.579-.012 2.79.005 2.862c.002 2-.002 4-.01 6-.011 3.064 0 6.127.012 9.191-.001 1.941-.003 3.881-.007 5.822l.012 2.784-.019 2.589-.005 2.276C482 318 482 318 480 321c-2.63.378-2.63.378-6.036.381l-3.9.026-4.304-.019a2185.132 2185.132 0 01-16.792.015c-4.277-.008-8.553-.001-12.83.004-7.182.006-14.365-.002-21.548-.016a6281.91 6281.91 0 00-24.938.006c-7.127.013-14.255.015-21.383.007-4.261-.004-8.522-.005-12.784.005-4.005.009-8.01.003-12.016-.015a591.747 591.747 0 00-4.419.004c-2.005.008-4.01-.004-6.014-.017l-3.406-.003L327 321c-2.045-3.067-2.251-3.692-2.259-7.148l-.019-2.519.012-2.708-.005-2.791c-.002-1.946.002-3.893.01-5.84.011-2.982 0-5.965-.012-8.947.001-1.891.003-3.781.007-5.672l-.012-2.708.019-2.519.005-2.213C325 276 325 276 327 273z" fill="#79AF42"/><path d="M78 243c2.646-.027 5.292-.047 7.938-.063l2.287-.025c1.925-.009 3.85.036 5.775.088 2.039 2.039 1.185 6.279 1.211 9.086l.086 5.008c.041 2.642.078 5.284.104 7.927.028 2.543.074 5.085.123 7.627l.01 2.397c.066 4.212.066 4.212 1.806 7.95 2.663 1.613 5.087 1.439 8.16 1.443l3.469.058c3.019-.213 3.019-.213 4.688-1.997 1.919-3.571 1.823-7.024 1.855-10.983l.054-2.472c.054-2.598.088-5.196.122-7.794.033-1.764.067-3.529.103-5.293.087-4.319.147-8.637.209-12.957h17l.113 8.207c.047 2.621.098 5.242.149 7.864.034 1.822.062 3.645.084 5.467.034 2.62.086 5.238.142 7.857l.02 2.471c-.003 4.214-.003 4.214 1.845 7.848 2.467 1.926 4.502 1.684 7.585 1.661l3.152.023c3.433-.47 4.562-.851 6.91-3.398.426-2.985.605-5.616.609-8.605l.051-2.544c.048-2.679.069-5.358.09-8.039.028-1.817.058-3.634.09-5.451.077-4.454.118-8.906.16-13.361h17c.099 5.674.172 11.348.22 17.023.02 1.927.047 3.854.082 5.781.049 2.783.071 5.565.089 8.348l.062 2.577c.003 6.787-1.472 12.994-6.145 18.131-6.675 6.24-13.321 7.651-22.183 7.578l-2.566.06c-4.745-.004-7.932-.507-12.129-2.775-3.192-1.609-3.192-1.609-6.621-1.123a149.342 149.342 0 00-4.457 2.32c-4.139 1.901-8.424 1.758-12.914 1.83l-2.768.09c-2.223.07-4.446.123-6.67.16l-.51 2.078C92.363 313.458 88.365 320.204 81 325c-7.345 4.294-14.06 4.611-22.438 4.5l-3.525.047c-8.572-.039-15.576-1.34-22.623-6.406-7.151-7.558-10.586-14.386-10.512-24.871l.005-2.274c.005-2.395.018-4.789.03-7.184l.014-4.873c.01-3.979.03-7.959.049-11.939h17l.113 6.605c.047 2.122.098 4.243.15 6.365.033 1.469.06 2.939.084 4.408.033 2.118.085 4.235.141 6.352l.08 3.857c.459 3.622 1.247 5.521 3.432 8.413 5.02 3.467 9.685 3.457 15.563 3.375l2.537.035c4.796-.023 7.996-.329 11.9-3.41 4.02-4.307 4.116-9.027 4.205-14.708l.06-3.397.051-3.633.063-3.745c.055-3.274.105-6.547.153-9.82.05-3.345.106-6.69.161-10.035.107-6.554.21-13.108.307-19.662z" fill="#76AC42"/><path d="M666.251-.267l2.548-.026 2.771.002 2.938-.02c3.206-.019 6.411-.023 9.617-.025l6.68-.02c4.667-.012 9.334-.016 14.002-.015 5.986 0 11.971-.027 17.957-.061 4.598-.022 9.196-.026 13.794-.025 2.207-.003 4.415-.012 6.622-.027 3.083-.02 6.166-.014 9.25-.002l2.771-.034c6.131.061 6.131.061 9.366 2.284 1.56 2.434 1.934 3.637 1.935 6.498l.028 2.518-.034 2.693.005 2.786a627.8 627.8 0 01-.034 5.822 631.586 631.586 0 00-.008 8.921 2668.31 2668.31 0 01-.025 5.658l.009 2.7-.039 2.507-.016 2.205c-.51 2.533-1.389 3.318-3.388 4.928-1.972.375-1.972.375-4.258.374l-2.63.021-2.876-.023-3.036.011c-3.318.008-6.636-.005-9.954-.02-2.3 0-4.6 0-6.901.002-4.822 0-9.645-.01-14.468-.029a3913.91 3913.91 0 00-18.58-.016c-4.749.003-9.499-.004-14.249-.013-2.285-.004-4.569-.005-6.853-.004-3.187 0-6.374-.012-9.56-.028l-2.883.007-2.621-.021-2.285-.007C660 49 660 49 658 47c-.24-1.949-.24-1.949-.227-4.358v-2.73l.032-2.951.008-3.018c.011-3.19.037-6.379.062-9.568l.027-6.477c.022-5.3.056-10.599.098-15.898 2.879-1.632 4.949-2.252 8.251-2.267z" fill="#fff"/><path d="M230.598 215.902c1.488.007 2.976.019 4.464.036l2.299.013c1.88.012 3.759.03 5.639.049l.025 2.403c.077 7.474.165 14.949.263 22.423.049 3.843.096 7.686.134 11.528.037 3.709.083 7.418.136 11.127.019 1.414.034 2.829.045 4.244.017 1.982.047 3.964.078 5.946l.041 3.418c.27 2.83.81 4.508 2.278 6.911 2.918.108 5.831.187 8.75.25l2.5.102 2.422.039 2.222.063c3.186-.687 4.23-1.794 6.106-4.454.418-2.947.605-5.536.609-8.484l.05-2.472c.049-2.598.07-5.196.091-7.794.028-1.764.058-3.529.09-5.293.074-4.319.123-8.638.16-12.957 2.646-.027 5.292-.047 7.938-.062l2.287-.026c1.925-.009 3.85.036 5.775.088 2.066 2.066 1.213 6.432 1.238 9.277l.025 2.547c.014 1.788.024 3.577.032 5.365.017 2.706.061 5.411.105 8.118.179 19.594.179 19.594-6.092 26.578-7.561 7.246-15.341 7.591-25.37 7.49l-3.51.035c-5.937-.02-10.268-.152-15.428-3.41-2.386.217-3.872.933-5.989 2.039-4.38 1.398-8.555 1.207-13.124 1.156l-2.938-.008c-3.088-.011-6.174-.037-9.261-.062l-6.292-.027c-5.132-.022-10.264-.057-15.396-.098v-16c3.257-1.628 6.856-1.2 10.438-1.246l5.148-.1c2.712-.047 5.425-.092 8.138-.131 2.613-.039 5.226-.091 7.838-.144l2.469-.026c4.456.081 4.456.081 7.969-2.353.326-2.825.326-2.825.303-6.178l.05-3.933.026-4.268.051-4.356c.046-3.825.081-7.65.113-11.476.051-6.127.116-12.253.188-18.38.023-2.146.039-4.291.055-6.437l.04-3.923.029-3.475c.226-4.012.563-3.558 4.743-3.672z" fill="#76AC42"/><path d="M898.938 91.688l3.037-.088 2.927-.026 2.672-.044C910 92 910 92 912.288 93.448c2.569 3.829 2.267 7.292 2.208 11.806l.005 2.719a597.698 597.698 0 01-.034 5.681 601.15 601.15 0 00-.008 8.703 2541.12 2541.12 0 01-.025 5.522l.008 2.633-.038 2.447-.016 2.151c-.515 2.507-1.337 3.384-3.388 4.89-1.935.388-1.935.388-4.148.404l-2.519.038-2.708-.008-2.791.015a710.56 710.56 0 01-5.84-.003c-2.983-.008-5.964.02-8.947.052-1.891.002-3.781.001-5.672-.002l-2.708.034c-6.117-.069-6.117-.069-8.726-2.256-1.748-4.225-1.411-8.449-1.379-12.962l-.06-2.896c.007-9.628 3.048-16.643 9.56-23.69 7.054-6.285 14.827-6.952 23.876-7.038z" fill="#fff"/><path d="M21 198h18v22h22v18H39v22H21v-22H0v-18h21v-22zm168.371 17.863l2.129.012 2.129-.012c5.244.01 5.244.01 6.371 1.137.093 1.657.117 3.319.114 4.979l-.001 3.215-.015 3.497-.005 3.561c-.005 3.77-.018 7.54-.03 11.31l-.014 7.647c-.011 6.264-.028 12.527-.049 18.791h-17c-.025-7.53-.043-15.059-.055-22.589-.005-2.564-.012-5.128-.02-7.692-.012-3.676-.018-7.352-.023-11.028l-.015-3.497-.001-3.215-.006-2.847c.24-4.251 2.838-3.262 6.491-3.269zM256 313c4.539-.025 9.078-.043 13.617-.055 1.545-.005 3.09-.012 4.636-.02 2.216-.013 4.433-.018 6.649-.023l2.106-.015c1.664-.001 3.329.051 4.992.113 1.908 1.908 1.131 5.315 1.133 7.844l.003 2.073c0 1.45-.001 2.899-.006 4.348-.005 2.226 0 4.451.007 6.676a5922.083 5922.083 0 01-.008 8.116C289 345 289 345 288 346c-2.699.073-5.365.092-8.062.062L272 346v-16c-4.892.04-4.892.04-9.783.09-1.739.007-3.478-.04-5.217-.09-1-1-1-1-1.098-4.598.007-1.488.019-2.976.036-4.465l.013-2.298c.012-1.88.03-3.759.049-5.639z" fill="#76AC42"/></g><defs><clipPath id="clip0_3_21"><path fill="#fff" d="M0 0h916v356H0z"/></clipPath></defs></svg>