<svg width="42" height="41" fill="none" xmlns="http://www.w3.org/2000/svg"><path d="M20.556.331c11.175 0 20.224 8.89 20.224 19.844S31.731 40.02 20.556 40.02C9.38 40.02.33 31.129.33 20.175.331 9.22 9.38.33 20.556.33z" fill="#fff" stroke="#CBE3EB" stroke-width=".661"/><path fill-rule="evenodd" clip-rule="evenodd" d="M23.805 18.514H23.7c-1.712 0-3.422.221-5.132.664l-.022.006c-.376.108-.635.427-.646.795l-.002.065c-.046 1.93.411 3.575 1.374 4.931 1.052 1.48 2.505 2.332 4.347 2.549l.08.009.08-.01c1.842-.215 3.296-1.068 4.347-2.548.963-1.356 1.42-3.001 1.374-4.93l-.002-.066v-.022a.867.867 0 00-.643-.772l-.022-.006-.109-.028a20.392 20.392 0 00-4.92-.637z" fill="#FFCA3D"/><path clip-rule="evenodd" d="M20.416 18.993v-5.226l-6.39 7.665h3.905v5.227l6.39-7.666h-3.905z" stroke="#004157" stroke-width=".752" stroke-linecap="round" stroke-linejoin="round"/><path d="M12.293 13.079a.368.368 0 01.472-.035l.04.035 1.839 1.803a.351.351 0 010 .504.368.368 0 01-.472.035l-.04-.035-1.84-1.804a.351.351 0 010-.503zm1.838 11.547a.368.368 0 01.513 0c.129.127.14.325.035.464l-.035.04-1.838 1.804a.368.368 0 01-.513 0 .351.351 0 01-.035-.463l.035-.04 1.838-1.804zm9.927 0a.368.368 0 01.473-.034l.04.034 1.839 1.805a.352.352 0 010 .503.368.368 0 01-.472.035l-.041-.035-1.838-1.804a.352.352 0 010-.504zm1.839-11.547a.368.368 0 01.513 0 .35.35 0 01.035.463l-.035.04-1.838 1.804a.368.368 0 01-.514 0 .35.35 0 01-.034-.463l.034-.04 1.839-1.804z" fill="#004157"/></svg>