<svg width="109" height="108" fill="none" xmlns="http://www.w3.org/2000/svg"><path d="M102.837 46.894H81.614a3.377 3.377 0 00-1.131 0h-.916a7.14 7.14 0 00-.808.67c-.3.245-.587.513-.862.802-.18.274-.342.565-.484.87-.247.422-.463.87-.647 1.34l-8.618 29.52L45.686 4.454c-.377-1.292-1.066-2.409-1.972-3.198C42.81.466 41.73.043 40.624.043c-1.107 0-2.187.423-3.093 1.212-.905.789-1.594 1.906-1.971 3.198l-12.443 42.44H5.88c-1.428 0-2.798.706-3.808 1.961C1.062 50.11.494 51.813.494 53.588s.567 3.478 1.578 4.733c1.01 1.255 2.38 1.961 3.808 1.961h23.162c.306-.183.595-.408.862-.67.3-.246.588-.514.862-.803l.485-.87c.256-.414.473-.863.646-1.339l8.726-30.324 22.408 76.447c.376 1.294 1.064 2.412 1.97 3.202.906.791 1.986 1.215 3.093 1.216 1.107-.001 2.187-.425 3.093-1.216.906-.79 1.594-1.908 1.97-3.202l12.39-42.441h17.29c1.428 0 2.799-.706 3.809-1.96 1.01-1.256 1.577-2.959 1.577-4.734s-.567-3.478-1.577-4.734c-1.01-1.255-2.381-1.96-3.809-1.96z" fill="#77B042"/></svg>