<svg version="1.1" id="Слой_1" xmlns="http://www.w3.org/2000/svg" x="0" y="0" viewBox="0 0 1000 1000" xml:space="preserve"><style>.st2{fill:#000001}</style><path d="M819.1 1000H180.9C81 1000 0 919 0 819.1V180.9C0 81 81 0 180.9 0h638.2C919 0 1000 81 1000 180.9v638.2c0 99.9-81 180.9-180.9 180.9z" fill="#3cf"/><path d="M539.4 184.3c-87.2 0-168.5 39.2-223.3 108.7-38.2 49-58.8 109.7-58.8 171.4v51.9c0 22.5-8.8 44.1-23.5 59.7-11.7 11.8-26.4 20.6-42.1 24.5 5.9 14.7 19.6 37.2 44.1 61.7 20.6 21.5 45.1 39.2 71.5 51.9v-1c16.6-25.5 44.1-40.2 74.4-40.2 5.9 0 10.8 1 16.7 2 35.3 6.9 62.7 34.3 69.5 68.6h72.5c75.4 0 146.9-31.3 198.8-82.3C819.5 580.9 844 460.5 800 356.6c-44.1-104.8-146-172.3-260.6-172.3z" fill="#fff"/><path class="st2" d="M539.4 149c-97 0-188 43.1-249.8 120.5-44.1 55.8-67.6 124.4-67.6 195.9v50.9c0 26.4-18.6 50.9-54.8 52.9-8.8 0-15.7 6.9-16.6 15.7-1 23.5 24.5 67.6 59.7 102.8 24.5 24.5 52.9 44.1 83.2 59.7-9.8 53.9 32.3 102.8 87.2 102.8h1c42.1 0 77.4-29.4 86.2-69.5h73.5c7.8 40.2 43.1 69.5 86.2 69.5 9.8 0 20.6-2 30.4-4.9 24.5-7.8 43.1-26.4 51.9-50.9 7.8-22.5 6.9-45 0-63.7 19.6-12.7 37.2-26.4 53.9-43.1 59.7-58.8 93-139.1 93-222.3 0-84.2-33.3-162.6-93-222.3-59.8-61.7-140.1-94-224.4-94zm0 35.3c113.6 0 216.5 68.6 260.5 173.4C844 462.5 819.5 583 739.2 662.3c-51.9 51.9-123.4 82.3-198.8 82.3h-72.5c-6.9-35.3-34.3-61.7-69.5-68.6-5.9-1-10.8-2-16.7-2-29.4 0-57.8 14.7-74.4 40.2v1c-26.4-13.7-50-31.4-71.5-51.9-24.5-24.5-38.2-48-44.1-61.7 16.7-3.9 30.4-12.7 42.1-24.5 14.7-16.7 23.5-37.2 23.5-59.7v-51.9c0-61.7 20.6-122.4 58.8-171.4 54.9-71.6 136.2-109.8 223.3-109.8z"/><path class="st2" d="M680.5 358.6c-19.6 0-35.3 15.7-35.3 35.3 0 19.6 15.7 35.3 35.3 35.3 19.6 0 35.3-15.7 35.3-35.3-.1-19.6-15.7-35.3-35.3-35.3zm-211.6 0c-19.6 0-35.3 15.7-35.3 35.3 0 19.6 15.7 35.3 35.3 35.3s35.3-15.7 35.3-35.3c0-19.6-15.7-35.3-35.3-35.3zm-5.9 140c-12.7 0-21.5 12.7-15.7 24.5 23.5 49 72.5 80.3 127.3 80.3s103.8-31.3 127.3-80.3c4.9-11.7-2.9-24.5-15.7-24.5-6.9 0-12.7 3.9-15.7 9.8-17.6 36.2-54.8 59.7-95 59.7-41.1 0-78.3-23.5-95-59.7-3.7-5.8-9.6-9.8-17.5-9.8z"/></svg>