<svg width="85" height="65" viewBox="0 0 85 65" fill="none" xmlns="http://www.w3.org/2000/svg">
<path class="draw-path" d="M36.6351 59.9518L36.5462 59.9616C35.2284 60.2283 33.9345 60.2972 32.7046 60.1661C32.43 60.1369 32.1835 60.3352 32.1544 60.6088C32.1251 60.8845 32.3234 61.1309 32.597 61.16C33.9313 61.3035 35.3289 61.2288 36.7443 60.9418C37.0149 60.8866 37.1897 60.6231 37.1354 60.3527C37.092 60.1421 36.9232 59.989 36.7229 59.9579L36.6351 59.9518ZM25.4392 56.5495C25.2236 56.7219 25.1886 57.0362 25.361 57.2518C26.2671 58.3857 27.3518 59.2886 28.5838 59.9472C28.8274 60.0775 29.1305 59.9854 29.2598 59.7418C29.3901 59.4983 29.298 59.1951 29.0555 59.0659C27.9433 58.4709 26.9638 57.6556 26.1425 56.6278C25.9701 56.4122 25.6547 56.3781 25.4392 56.5495ZM43.5674 56.6634C42.5083 57.4734 41.3948 58.1584 40.2499 58.7049C40.001 58.8238 39.8959 59.1232 40.0148 59.3721C40.1337 59.621 40.4321 59.7261 40.681 59.6072C41.8892 59.0301 43.0624 58.3091 44.1756 57.4567C44.3947 57.2896 44.4367 56.9758 44.2686 56.7565C44.1005 56.5372 43.7867 56.4952 43.5674 56.6634ZM22.9637 49.0155L22.8733 49.0182C22.5994 49.0502 22.4026 49.299 22.4355 49.573C22.6071 51.0335 22.9144 52.3732 23.3509 53.5846C23.444 53.8447 23.7303 53.979 23.9905 53.886C24.2496 53.7928 24.385 53.5056 24.2919 53.2454C23.8822 52.1081 23.5918 50.8427 23.4281 49.4559C23.4029 49.2437 23.2472 49.0764 23.05 49.0285L22.9637 49.0155ZM48.7475 50.9077C48.0474 52.0316 47.2624 53.0794 46.4015 54.0367C46.2168 54.2423 46.2348 54.5583 46.4394 54.743C46.645 54.9278 46.9609 54.9108 47.1457 54.7052C48.0448 53.7035 48.8661 52.6101 49.5968 51.4352C49.7425 51.2008 49.6699 50.892 49.4355 50.7463C49.2011 50.6006 48.8933 50.6723 48.7475 50.9077ZM51.7405 43.6157C51.4373 44.9127 51.0392 46.161 50.5538 47.354C50.4497 47.6104 50.5727 47.9017 50.829 48.0058C51.0844 48.1099 51.3757 47.9869 51.4798 47.7305C51.9856 46.4898 52.3992 45.1915 52.714 43.8432C52.7769 43.5749 52.6102 43.3056 52.341 43.2427C52.0727 43.1798 51.8034 43.3464 51.7405 43.6157ZM22.7476 41.4259C22.5016 42.736 22.3512 44.0847 22.2961 45.4743C22.2848 45.7502 22.5001 45.9828 22.7761 45.993C23.052 46.0043 23.2846 45.789 23.2948 45.513C23.3484 44.1735 23.4935 42.8725 23.7301 41.6109C23.7811 41.3398 23.603 41.0777 23.3319 41.0267C23.0598 40.9756 22.7987 41.1538 22.7476 41.4259ZM52.9878 35.1962L52.8979 35.1919C52.6213 35.2056 52.4095 35.4394 52.4222 35.716C52.4868 37.0578 52.4651 38.3705 52.3597 39.6492C52.3374 39.9243 52.5421 40.1662 52.8172 40.1885C53.0922 40.2117 53.3341 40.0071 53.3564 39.731C53.4659 38.4084 53.4875 37.0536 53.42 35.6675C53.411 35.4523 53.267 35.2759 53.0727 35.2152L52.9878 35.1962ZM25.5344 33.7556C24.8616 34.9486 24.293 36.1849 23.8285 37.4657C23.7342 37.7247 23.8676 38.0107 24.1276 38.1051C24.3867 38.1994 24.6737 38.0661 24.768 37.806C25.2148 36.5782 25.7598 35.3923 26.4053 34.2476C26.5414 34.0065 26.4564 33.7018 26.2164 33.5657C25.9752 33.4306 25.6705 33.5155 25.5344 33.7556ZM30.5396 27.3913C29.534 28.3535 28.6189 29.3551 27.7963 30.3962C27.6248 30.6128 27.6619 30.9281 27.8785 31.0987C28.0951 31.2702 28.4104 31.2331 28.5809 31.0165C29.3749 30.0124 30.2576 29.0446 31.2298 28.1142C31.4307 27.9227 31.4378 27.6065 31.2462 27.4066C31.0556 27.2078 30.7394 27.2007 30.5396 27.3913ZM51.4829 27.2719C51.2172 27.3456 51.0605 27.6213 51.1332 27.887C51.4921 29.1912 51.7771 30.4762 51.9893 31.7421C52.0345 32.0139 52.2923 32.1984 52.5651 32.1523C52.837 32.1061 53.0214 31.8484 52.9753 31.5765C52.7574 30.2771 52.4647 28.9585 52.098 27.6217C52.0244 27.3559 51.7497 27.1983 51.4829 27.2719ZM37.014 22.4799C35.8244 23.2057 34.7069 23.9626 33.6605 24.7485C33.4404 24.9146 33.3964 25.2283 33.5614 25.4493C33.7275 25.6695 34.0412 25.7134 34.2622 25.5485C35.2813 24.7807 36.3724 24.042 37.5347 23.3333C37.7703 23.1894 37.845 22.8819 37.701 22.6463C37.5571 22.4107 37.2496 22.336 37.014 22.4799ZM48.6511 19.8734C48.4004 19.9891 48.2914 20.2873 48.4072 20.538C48.9779 21.7668 49.4871 22.9852 49.9361 24.1905C50.0323 24.4498 50.3198 24.5812 50.5791 24.4861C50.8385 24.3889 50.9699 24.1014 50.8737 23.8421C50.4155 22.6111 49.8958 21.3688 49.3148 20.1162C49.198 19.8655 48.9019 19.7566 48.6511 19.8734ZM44.2001 18.8303C42.9243 19.3706 41.7039 19.9359 40.538 20.524C40.2917 20.6481 40.1935 20.949 40.3176 21.1953C40.4417 21.4415 40.7426 21.5407 40.9888 21.4166C42.134 20.8381 43.3336 20.2834 44.5908 19.7508C44.8449 19.6433 44.9637 19.3499 44.8561 19.0957C44.7476 18.8415 44.4542 18.7228 44.2001 18.8303ZM51.7885 16.093C50.4722 16.4962 49.1996 16.9184 47.9708 17.3598C47.7108 17.4519 47.5764 17.7392 47.6695 17.9993C47.7626 18.2584 48.0489 18.3937 48.309 18.3007C49.5224 17.8642 50.7795 17.4479 52.0815 17.0488C52.3459 16.967 52.4937 16.6876 52.413 16.4234C52.3311 16.16 52.0528 16.0122 51.7885 16.093ZM44.7487 12.8911C44.5149 13.0382 44.4451 13.3471 44.5922 13.5809C45.316 14.7272 45.9891 15.8669 46.6117 16.9981C46.7452 17.24 47.0497 17.3294 47.2916 17.196C47.5335 17.0625 47.6209 16.7579 47.4885 16.5161C46.8561 15.3672 46.1721 14.2106 45.4385 13.0466C45.2904 12.8137 44.9825 12.7441 44.7487 12.8911ZM59.5586 14.04C58.2233 14.3426 56.923 14.6597 55.6587 14.9923C55.3911 15.0628 55.2317 15.3363 55.3022 15.6029C55.3717 15.8704 55.6453 16.0299 55.9129 15.9594C57.1659 15.63 58.454 15.3151 59.779 15.0168C60.049 14.9554 60.2181 14.6866 60.1567 14.4177C60.0953 14.1487 59.8285 13.9797 59.5586 14.04ZM6.42113 8.24922C5.37187 9.10511 4.3815 10.0363 3.45643 11.0372C3.26878 11.2406 3.28179 11.5563 3.4842 11.7439C3.68761 11.9315 4.00329 11.9185 4.19086 11.7161C5.08449 10.7491 6.04049 9.85057 7.05361 9.02423C7.26737 8.84871 7.2984 8.53411 7.12487 8.32049C6.94935 8.10672 6.63482 8.0747 6.42113 8.24922ZM75.0325 7.12758C74.9347 7.3513 75.0148 7.61052 75.2121 7.7416L75.2913 7.78523L81.9524 10.697L79.3739 10.9577C79.0994 10.9847 78.8987 11.2303 78.9266 11.5049C78.9507 11.7492 79.1472 11.9343 79.3835 11.9528L79.4738 11.9521L82.0542 11.6915L76.105 15.8737C75.9037 16.014 75.8383 16.2761 75.9375 16.4915L75.9822 16.5698C76.1245 16.7702 76.3866 16.8357 76.602 16.7365L76.6794 16.6918L84.19 11.4118C84.4851 11.2049 84.4651 10.7744 84.1795 10.5861L84.1022 10.5446L75.6922 6.86896C75.4393 6.75805 75.1446 6.87277 75.0336 7.12665L75.0325 7.12758ZM67.5367 12.4968L67.446 12.5035C66.0991 12.7281 64.7823 12.9658 63.4957 13.2156C63.2244 13.2678 63.0476 13.5312 63.0999 13.8015C63.1531 14.0728 63.4154 14.2496 63.6857 14.1973C64.9641 13.9489 66.2718 13.7125 67.6106 13.4894C67.8835 13.4443 68.0669 13.1864 68.0217 12.9146C67.9865 12.7017 67.8231 12.5439 67.6233 12.5058L67.5367 12.4968ZM75.4759 11.3658L75.3855 11.3695C74.0359 11.5318 72.7115 11.7058 71.4124 11.8917C71.139 11.9307 70.9489 12.183 70.9879 12.4564C71.027 12.7298 71.2803 12.9199 71.5537 12.8809C72.8446 12.6975 74.1629 12.5241 75.5056 12.3613C75.7795 12.3284 75.9754 12.0794 75.9424 11.8054C75.9172 11.5922 75.7604 11.4268 75.5622 11.3789L75.4759 11.3658ZM39.7946 6.7556C39.6137 6.96348 39.6377 7.27993 39.8455 7.46087C40.8411 8.31941 41.7164 9.2778 42.459 10.3272C42.6186 10.5528 42.9307 10.6057 43.1564 10.4461C43.3821 10.2864 43.4349 9.97438 43.2752 9.74969C42.4851 8.63386 41.556 7.61456 40.4999 6.70368C40.2911 6.52266 39.9746 6.54765 39.7946 6.7556ZM13.301 4.06094C12.0572 4.60249 10.8506 5.22885 9.69155 5.93472C9.45494 6.07856 9.3803 6.38611 9.52415 6.62272C9.66807 6.85833 9.97561 6.93296 10.2112 6.78905C11.3316 6.10554 12.4976 5.5014 13.7001 4.97701C13.9535 4.86641 14.0693 4.57177 13.9597 4.31851C13.849 4.06618 13.5545 3.94934 13.3011 4.05994L13.301 4.06094ZM32.7088 3.0934C32.6243 3.35614 32.769 3.63692 33.0318 3.72146C34.3033 4.13115 35.5076 4.64141 36.629 5.24911C36.8714 5.38034 37.1754 5.29033 37.3067 5.04789C37.438 4.80446 37.3479 4.50143 37.1055 4.3702C35.9291 3.73259 34.6673 3.19727 33.3379 2.7695C33.0752 2.68496 32.7924 2.82959 32.7088 3.0934ZM21.2862 1.82852L21.1957 1.83222C19.8584 2.01939 18.5268 2.29717 17.2148 2.66656C16.9491 2.74019 16.7944 3.01608 16.8691 3.28193C16.9437 3.54779 17.2195 3.70341 17.4854 3.62877C18.7533 3.27335 20.0412 3.00453 21.3339 2.82327C21.6073 2.78524 21.7984 2.53196 21.7604 2.25864C21.7301 2.04601 21.571 1.88452 21.3726 1.84057L21.2862 1.82852ZM25.2594 1.54899C24.9837 1.54976 24.7596 1.77267 24.7593 2.04932C24.76 2.32505 24.984 2.54921 25.2597 2.54845C26.5879 2.5481 27.8995 2.64282 29.1764 2.83236C29.4504 2.87156 29.7041 2.6838 29.7442 2.41094C29.7854 2.13714 29.5966 1.88336 29.3228 1.84316C27.9963 1.64614 26.6368 1.54807 25.2594 1.54899Z" fill="#004157"/>
</svg>
