<svg width="100" height="107" viewBox="0 0 100 107" fill="none" xmlns="http://www.w3.org/2000/svg">
<path d="M23.3033 62.8462L23.2478 62.776C22.323 61.8 21.5786 60.7394 21.0378 59.6271C20.917 59.3787 20.6182 59.2749 20.3708 59.3952C20.1215 59.5165 20.0177 59.8153 20.138 60.0628C20.7238 61.2701 21.528 62.4156 22.5217 63.4636C22.712 63.6637 23.028 63.6723 23.2286 63.4829C23.3841 63.3345 23.4245 63.1102 23.3446 62.9239L23.3033 62.8462ZM20.2527 51.5494C19.9923 51.458 19.7072 51.5949 19.6158 51.8554C19.1347 53.2248 18.9441 54.6232 19.0389 56.017C19.0575 56.2925 19.2963 56.5008 19.5714 56.4813C19.8469 56.4627 20.0552 56.2239 20.0362 55.9497C19.9511 54.6912 20.1231 53.4284 20.5592 52.1871C20.6506 51.9267 20.5123 51.6412 20.2527 51.5494ZM29.7667 66.9808C28.5183 66.5123 27.3472 65.9313 26.2769 65.2502C26.0441 65.1022 25.7345 65.1718 25.5865 65.4045C25.4385 65.6373 25.5076 65.9461 25.7404 66.0941C26.8702 66.8125 28.1035 67.4251 29.4164 67.917C29.6743 68.0143 29.9626 67.8835 30.0594 67.6247C30.1562 67.366 30.0255 67.0776 29.7667 66.9808ZM25.3285 45.4563L25.2783 45.381C25.106 45.1658 24.7906 45.1308 24.5758 45.304C23.4283 46.2237 22.4553 47.1945 21.6596 48.2069C21.4884 48.4237 21.5263 48.7377 21.7431 48.9089C21.9595 49.0792 22.2748 49.0417 22.446 48.8249C23.1932 47.8746 24.1121 46.9575 25.2013 46.0836C25.3679 45.9496 25.4271 45.7289 25.3632 45.5364L25.3285 45.4563ZM37.3932 68.3218C36.069 68.324 34.7644 68.2138 33.4964 67.9914C33.2241 67.9437 32.9656 68.1265 32.9175 68.3979C32.8698 68.6702 33.0517 68.9291 33.324 68.9768C34.65 69.2081 36.0125 69.3248 37.3961 69.3215C37.6721 69.3208 37.8954 69.0955 37.8947 68.8195C37.894 68.5435 37.67 68.3206 37.3932 68.3218ZM45.1628 66.9937C43.9023 67.4242 42.6328 67.7485 41.3639 67.9694C41.0913 68.017 40.9095 68.2757 40.9572 68.5483C41.0043 68.82 41.263 69.0018 41.5356 68.9542C42.8557 68.7253 44.1758 68.3876 45.486 67.9398C45.7468 67.8509 45.8868 67.5668 45.7974 67.3051C45.7085 67.0444 45.4245 66.9044 45.1628 66.9937ZM31.6492 41.2495C30.408 41.7354 29.1846 42.3229 27.9772 43.0129C27.7373 43.1496 27.6542 43.4554 27.7918 43.6949C27.9285 43.9348 28.2344 44.0178 28.4738 43.8803C29.638 43.2155 30.8181 42.6488 32.0132 42.1806C32.2702 42.0802 32.3979 41.7902 32.2975 41.5333C32.1966 41.2755 31.907 41.1486 31.6492 41.2495ZM52.963 63.5879L52.919 63.5094C52.7607 63.2821 52.4502 63.2264 52.2224 63.3838C51.1189 64.1499 49.9944 64.8275 48.8543 65.416C48.6092 65.543 48.5126 65.8447 48.6396 66.0898C48.7657 66.3353 49.0674 66.4319 49.3134 66.3044C50.4929 65.6962 51.653 64.9962 52.7925 64.2042C52.9702 64.0825 53.0435 63.8668 52.9919 63.6699L52.963 63.5879ZM39.6304 39.5462C38.2621 39.6081 36.9124 39.7814 35.5802 40.0665C35.3105 40.1239 35.1387 40.3886 35.1966 40.6591C35.254 40.9288 35.5191 41.1015 35.7897 41.0436C37.0676 40.7715 38.3621 40.605 39.6749 40.5453C39.9515 40.533 40.1648 40.2994 40.1529 40.0237C40.1396 39.7476 39.9061 39.5343 39.6304 39.5462ZM47.6802 40.4161C46.3312 40.0735 44.9968 39.8286 43.6779 39.6831C43.4034 39.6524 43.1556 39.8511 43.1259 40.1252C43.0953 40.3997 43.2939 40.6474 43.568 40.6772C44.8403 40.8181 46.1288 41.0535 47.4332 41.3846C47.702 41.4534 47.9739 41.2917 48.0418 41.0234C48.1093 40.7564 47.9476 40.4845 47.6802 40.4161ZM58.8843 58.1109C58.681 57.9246 58.3641 57.9379 58.1773 58.1404C57.2617 59.1361 56.3233 60.0591 55.3624 60.9101C55.1559 61.0925 55.1362 61.4088 55.3199 61.6158C55.5032 61.8218 55.8195 61.8416 56.0256 61.6583C57.0118 60.7847 57.9747 59.8374 58.9138 58.8178C59.1001 58.6145 59.0881 58.2981 58.8843 58.1109ZM55.2769 43.3021C54.0309 42.6782 52.7966 42.1319 51.5755 41.6613C51.318 41.5627 51.0287 41.6917 50.9288 41.9488C50.8302 42.2063 50.9592 42.4956 51.2162 42.5956C52.4075 43.0526 53.6123 43.5862 54.8293 44.196C55.0763 44.3195 55.3766 44.2198 55.5001 43.9728C55.6236 43.7259 55.5238 43.4255 55.2769 43.3021ZM63.6564 51.7875C63.4253 51.6363 63.1147 51.7019 62.9635 51.933C62.2241 53.0683 61.4609 54.1461 60.677 55.1657C60.5081 55.3847 60.5491 55.6982 60.7673 55.8676C60.9872 56.036 61.3006 55.995 61.4695 55.776C62.2703 54.7349 63.0482 53.6357 63.8023 52.479C63.953 52.247 63.8883 51.9382 63.6564 51.7875ZM62.1811 47.4604C61.0466 46.6651 59.9203 45.93 58.8036 45.2532C58.5678 45.1102 58.2606 45.1864 58.1176 45.4222C57.9746 45.658 58.0499 45.9657 58.2857 46.1087C59.3833 46.773 60.4896 47.4961 61.6077 48.2797C61.8336 48.4382 62.1454 48.3833 62.3038 48.1574C62.4618 47.9306 62.407 47.6189 62.1811 47.4604ZM68.525 52.4436C67.4853 51.5412 66.4526 50.686 65.427 49.8781C65.211 49.7064 64.8962 49.7448 64.725 49.9616C64.5546 50.178 64.5917 50.4924 64.8085 50.6636C65.8218 51.4611 66.8413 52.3063 67.8699 53.1987C68.0794 53.3795 68.3947 53.3568 68.5759 53.1482C68.7559 52.9392 68.7336 52.6248 68.525 52.4436ZM67.5078 44.777C67.2592 44.6567 66.9603 44.7613 66.84 45.01C66.2518 46.2314 65.6422 47.4064 65.0132 48.534C64.8788 48.7754 64.9644 49.081 65.2058 49.2153C65.4472 49.3497 65.7518 49.2624 65.8867 49.0218C66.5256 47.8765 67.1436 46.6835 67.7417 45.4444C67.8606 45.1953 67.7565 44.8973 67.5078 44.777ZM74.385 57.9436C73.4205 56.9717 72.4623 56.0373 71.5101 55.1416C71.3084 54.9521 70.9919 54.9619 70.8033 55.1631C70.6134 55.3638 70.6232 55.6803 70.8248 55.8698C71.7684 56.7576 72.7183 57.6829 73.6737 58.6483C73.8687 58.8446 74.1864 58.8455 74.3819 58.6509C74.5774 58.4563 74.5792 58.1404 74.385 57.9436ZM51.1248 9.81783C49.8428 9.38189 48.5282 9.0358 47.1891 8.78205C46.9171 8.73078 46.6564 8.90916 46.6046 9.18022C46.5534 9.45217 46.7317 9.71294 47.0028 9.76468C48.2965 10.0097 49.5652 10.344 50.8029 10.765C51.0651 10.8532 51.3483 10.7127 51.4374 10.4523C51.5256 10.1902 51.386 9.9065 51.1248 9.81783ZM88.4495 67.3995C88.2079 67.4351 88.0306 67.6405 88.024 67.8773L88.029 67.9675L89.0914 75.1592L87.5034 73.1111C87.335 72.8926 87.0204 72.8527 86.8023 73.0219C86.6079 73.1718 86.5552 73.4366 86.6647 73.6468L86.7132 73.723L88.3022 75.7728L81.6021 72.9455C81.3764 72.8492 81.1195 72.9327 80.9895 73.131L80.9467 73.2104C80.8523 73.4374 80.9357 73.6943 81.1341 73.8244L81.213 73.8662L89.6715 77.4354C90.0035 77.576 90.3578 77.3308 90.3662 76.9888L90.3604 76.9013L89.0184 67.8217C88.9784 67.5485 88.7249 67.3594 88.4508 67.3999L88.4495 67.3995ZM79.923 63.8901L79.8693 63.8168C78.9648 62.7938 78.0651 61.8033 77.1712 60.8448C76.9831 60.6425 76.6661 60.6322 76.4646 60.8198C76.2628 61.0087 76.252 61.3249 76.4396 61.5263C77.328 62.4786 78.2216 63.4621 79.1206 64.479C79.3035 64.6865 79.6193 64.7053 79.8259 64.5229C79.9878 64.3801 80.0349 64.158 79.9612 63.9683L79.923 63.8901ZM85.0909 70.0223L85.0398 69.9476C84.1867 68.8892 83.337 67.8586 82.4908 66.8555C82.3127 66.6444 81.998 66.617 81.7869 66.7951C81.5758 66.9731 81.5489 67.2887 81.7269 67.4998C82.5668 68.4972 83.4127 69.5231 84.2625 70.5752C84.4357 70.79 84.7506 70.8241 84.9654 70.6509C85.1329 70.5165 85.19 70.2958 85.1256 70.1024L85.0909 70.0223ZM70.0838 37.3237C69.8116 37.2805 69.556 37.4686 69.5128 37.7408C69.3126 39.04 68.964 40.2903 68.468 41.4763C68.3612 41.7313 68.4818 42.0239 68.7368 42.1306C68.9918 42.2374 69.2845 42.1168 69.3903 41.8622C69.9176 40.6008 70.2893 39.2726 70.5018 37.8942C70.5445 37.6212 70.3556 37.366 70.0838 37.3237ZM58.3234 13.431C57.2048 12.6635 56.034 11.9724 54.821 11.3638C54.5736 11.2395 54.2733 11.3392 54.1489 11.5866C54.0254 11.8336 54.1252 12.1339 54.3721 12.2574C55.5457 12.845 56.676 13.5134 57.7582 14.255C57.9863 14.4112 58.2975 14.3532 58.4541 14.126C58.6094 13.8984 58.5523 13.5867 58.3242 13.4305L58.3234 13.431ZM69.4326 29.3741C69.165 29.4417 69.0037 29.7133 69.0713 29.9809C69.398 31.2762 69.6038 32.5679 69.683 33.8409C69.7002 34.116 69.9377 34.3261 70.2129 34.3088C70.4889 34.2911 70.6981 34.0541 70.6808 33.7789C70.5978 32.4435 70.3828 31.0898 70.0408 29.7358C69.9731 29.4682 69.7006 29.3051 69.4326 29.3741ZM64.4495 19.0182L64.3984 18.9435C63.5307 17.9088 62.5893 16.9269 61.5805 16.0103C61.3772 15.824 61.0613 15.8392 60.8754 16.0434C60.6896 16.2476 60.7039 16.564 60.9081 16.7498C61.8816 17.6365 62.7923 18.586 63.6314 19.586C63.8085 19.7976 64.1246 19.8254 64.3362 19.6483C64.5004 19.5099 64.553 19.2894 64.4851 19.0978L64.4495 19.0182ZM66.7929 22.2389C66.646 22.0055 66.3382 21.9337 66.1035 22.0801C65.8701 22.2269 65.7987 22.5356 65.9456 22.769C66.65 23.8951 67.265 25.0574 67.7813 26.2406C67.8932 26.4936 68.187 26.6092 68.4396 26.4986C68.6936 26.3884 68.8087 26.0938 68.6976 25.8402C68.1614 24.6111 67.5239 23.4064 66.7929 22.2389Z" fill="#004157"/>
</svg>
