<svg width="133" height="130" viewBox="0 0 133 130" fill="none" xmlns="http://www.w3.org/2000/svg">
<path d="M82.3285 34.5591L82.2497 34.4764C81.1764 33.14 79.9722 32.0042 78.6744 31.1042C78.3846 30.9031 78.2995 30.5176 78.4844 30.2435C78.6707 29.9674 79.0555 29.9067 79.3442 30.107C80.7531 31.0823 82.0536 32.3094 83.2061 33.7452C83.426 34.02 83.3907 34.4056 83.1272 34.6077C82.9209 34.764 82.6376 34.764 82.4186 34.6263L82.3285 34.5591ZM68.7931 28.3837C68.7179 28.0475 68.9288 27.7313 69.2643 27.6773C71.0288 27.3927 72.7867 27.4673 74.4976 27.8873C74.8359 27.9702 75.0589 28.3057 74.9948 28.6354C74.9317 28.9659 74.606 29.1665 74.2695 29.0834C72.7246 28.7048 71.1371 28.6374 69.5378 28.8953C69.2023 28.9493 68.8691 28.7189 68.7931 28.3837ZM86.5057 43.3114C86.1072 41.6931 85.5585 40.1441 84.8712 38.6955C84.7219 38.3805 84.8529 38.0198 85.1625 37.891C85.4721 37.7623 85.844 37.9137 85.9933 38.2287C86.7182 39.7578 87.297 41.3891 87.715 43.0909C87.7979 43.4253 87.5942 43.7468 87.2599 43.8077C86.9257 43.8686 86.5878 43.6468 86.5057 43.3114ZM60.5162 33.2136L60.4304 33.1362C60.1891 32.8799 60.1916 32.4893 60.4372 32.2663C61.7419 31.0743 63.0845 30.1053 64.4528 29.3606C64.746 29.2002 65.129 29.3149 65.3094 29.6156C65.4887 29.9156 65.3965 30.2903 65.1033 30.4507C63.8189 31.15 62.5506 32.0651 61.3109 33.1963C61.121 33.3693 60.8393 33.393 60.6103 33.2732L60.5162 33.2136ZM87.057 52.8647C87.2521 51.2574 87.3053 49.6493 87.2143 48.061C87.1949 47.7199 87.4586 47.4461 87.8014 47.447C88.1453 47.4487 88.4392 47.7262 88.4587 48.0673C88.5522 49.7279 88.4987 51.4077 88.2937 53.0869C88.2527 53.4219 87.9415 53.6438 87.6 53.5825C87.2586 53.5213 87.0153 53.2006 87.057 52.8647ZM84.285 62.0078C85.0008 60.5716 85.5865 59.1012 86.0441 57.6088C86.1426 57.2882 86.4892 57.1241 86.8195 57.2416C87.1489 57.3582 87.3362 57.7121 87.2377 58.0327C86.7627 59.5855 86.1532 61.1145 85.4086 62.6073C85.2607 62.9045 84.8889 63.0123 84.5781 62.8465C84.2683 62.6815 84.1364 62.306 84.285 62.0078ZM54.3926 39.9677C55.1742 38.567 56.0789 37.2101 57.108 35.895C57.312 35.6337 57.7026 35.5997 57.9788 35.8192C58.2558 36.0376 58.3142 36.4272 58.1092 36.6878C57.1175 37.9559 56.2449 39.2648 55.4919 40.6134C55.3303 40.9034 54.9529 40.9951 54.6495 40.8169C54.3452 40.638 54.2303 40.2587 54.3926 39.9677ZM78.9374 70.7336L78.8467 70.663C78.5884 70.4211 78.5647 70.0318 78.7925 69.7897C79.9008 68.6175 80.9026 67.4004 81.7964 66.1448C81.9891 65.875 82.3765 65.8237 82.6613 66.0315C82.9468 66.2384 83.0225 66.6258 82.8291 66.8966C81.905 68.1956 80.8704 69.4512 79.7248 70.6614C79.5484 70.8505 79.2709 70.8923 79.0347 70.7867L78.9374 70.7336ZM51.1254 49.2856C51.4008 47.6379 51.8113 46.0369 52.3577 44.4818C52.4679 44.167 52.8204 44.0163 53.1467 44.1457C53.472 44.2744 53.6472 44.6341 53.5363 44.9499C53.0139 46.442 52.6198 47.9773 52.3553 49.5583C52.2998 49.8914 51.9799 50.0993 51.6404 50.0245C51.3007 49.948 51.0707 49.6178 51.1254 49.2856ZM51.0324 59.2499C50.8045 57.5371 50.6953 55.8633 50.7068 54.23C50.7088 53.89 50.9906 53.6326 51.334 53.6565C51.6782 53.6794 51.9559 53.9748 51.9529 54.3141C51.9424 55.8896 52.0465 57.5056 52.2667 59.1618C52.3128 59.5033 52.0733 59.7981 51.7313 59.8218C51.3912 59.8454 51.0782 59.5896 51.0324 59.2499ZM71.3 76.7249C71.099 76.4372 71.1616 76.0555 71.4393 75.873C72.8044 74.9791 74.0828 74.0416 75.2754 73.0611C75.5311 72.8502 75.9254 72.8955 76.1548 73.1638C76.3831 73.4314 76.3616 73.8198 76.1049 74.0299C74.8806 75.0363 73.5686 75.9982 72.1705 76.9154C71.8919 77.0971 71.5021 77.0133 71.3 76.7249ZM53.4999 69.105C52.909 67.4556 52.4123 65.8376 52.0074 64.252C51.9228 63.9177 52.1244 63.5947 52.4571 63.5296C52.79 63.4662 53.1292 63.6861 53.2156 64.0201C53.608 65.5665 54.0933 67.1461 54.6711 68.7572C54.788 69.084 54.6209 69.4269 54.2974 69.5228C53.9739 69.6187 53.6168 69.4319 53.4999 69.105ZM62.7823 81.1356C62.6288 80.822 62.7551 80.4592 63.063 80.3262C64.5752 79.6768 66.0197 78.986 67.3953 78.2572C67.6909 78.1001 68.0728 78.2185 68.2507 78.5204C68.4272 78.8242 68.3309 79.1958 68.0353 79.353C66.6307 80.0976 65.1576 80.8016 63.6168 81.464C63.3078 81.5963 62.9351 81.4502 62.7823 81.1356ZM57.6424 78.3977C56.8231 76.8462 56.077 75.3179 55.4018 73.8139C55.2591 73.4963 55.3981 73.14 55.7106 73.018C56.0232 72.8959 56.3929 73.0547 56.5356 73.3723C57.1981 74.8503 57.9322 76.3518 58.7394 77.8808C58.9027 78.1897 58.7895 78.5563 58.487 78.6992C58.1834 78.8415 57.8056 78.7066 57.6424 78.3977ZM62.8868 87.1906C61.9212 85.7308 61.0131 84.2898 60.1624 82.8677C59.9813 82.568 60.0746 82.1941 60.3677 82.0336C60.6602 81.8742 61.0439 81.9879 61.2243 82.2886C62.0639 83.6935 62.9616 85.1162 63.9164 86.5604C64.1097 86.8543 64.0358 87.2321 63.7513 87.4066C63.4666 87.5793 63.0808 87.4835 62.8868 87.1906ZM53.5481 84.2783C53.4353 83.95 53.6082 83.61 53.9334 83.5184C55.5302 83.0714 57.0726 82.5883 58.5593 82.0712C58.8775 81.9609 59.2433 82.1317 59.3745 82.4542C59.5056 82.7766 59.3533 83.1275 59.0361 83.2386C57.5261 83.7638 55.96 84.2531 54.3399 84.7082C54.0144 84.7982 53.6608 84.6065 53.5481 84.2783ZM68.8411 95.5089C67.7787 94.1252 66.7616 92.7574 65.7917 91.4052C65.5865 91.1189 65.6446 90.7368 65.9209 90.5518C66.1969 90.3651 66.5871 90.4462 66.7923 90.7325C67.7538 92.0724 68.7607 93.4282 69.8165 94.7994C70.0311 95.0792 69.9861 95.4651 69.7169 95.6599C69.4476 95.8547 69.0565 95.7878 68.8411 95.5089ZM12.6701 56.7381C12.3169 55.0861 12.0796 53.4143 11.9602 51.7328C11.9363 51.3914 12.1949 51.1138 12.5378 51.1103C12.8817 51.1076 13.1785 51.3812 13.2032 51.7216C13.3184 53.346 13.5478 54.9595 13.8888 56.5545C13.9599 56.8921 13.7449 57.2052 13.4098 57.2565C13.0726 57.3062 12.7419 57.0747 12.6701 56.7381ZM78.4985 114.654C78.5777 114.369 78.8576 114.199 79.1516 114.242L79.2625 114.268L88.007 117.132L85.7035 114.755C85.4575 114.503 85.4539 114.112 85.695 113.885C85.9087 113.681 86.244 113.675 86.4882 113.854L86.5754 113.93L88.881 116.307L86.3559 107.554C86.2695 107.259 86.4101 106.965 86.6744 106.851L86.7789 106.816C87.0734 106.751 87.3792 106.909 87.5114 107.178L87.5517 107.283L90.7393 118.334C90.865 118.768 90.5102 119.144 90.0858 119.08L89.9783 119.053L78.9383 115.438C78.606 115.329 78.4089 114.98 78.4988 114.656L78.4985 114.654ZM75.3948 103.534L75.3118 103.453C74.1774 102.131 73.0824 100.822 72.0264 99.5266C71.8033 99.254 71.8366 98.8668 72.098 98.6632C72.3612 98.4594 72.7539 98.5155 72.9759 98.7874C74.0252 100.074 75.1124 101.375 76.2401 102.689C76.4702 102.956 76.4476 103.344 76.1919 103.555C75.9917 103.72 75.7099 103.729 75.486 103.598L75.3948 103.534ZM82.2319 111.15L82.1469 111.072C80.9612 109.805 79.8093 108.547 78.6911 107.3C78.4558 107.038 78.4676 106.65 78.7186 106.433C78.9695 106.215 79.364 106.252 79.5993 106.514C80.7115 107.752 81.8579 109.004 83.0364 110.265C83.2771 110.523 83.2735 110.913 83.028 111.136C82.8373 111.309 82.556 111.33 82.326 111.21L82.2319 111.15ZM43.9512 85.7754C43.9373 85.4355 44.2072 85.1663 44.5503 85.1733C46.187 85.2145 47.7847 85.0648 49.3243 84.7219C49.6553 84.6481 50 84.8586 50.095 85.1915C50.19 85.5245 49.9983 85.8535 49.6679 85.9263C48.0304 86.2905 46.3329 86.4512 44.5965 86.4077C44.2524 86.3999 43.9641 86.1146 43.9512 85.7754ZM16.0952 66.2689C15.308 64.7429 14.6229 63.1701 14.0461 61.5642C13.9282 61.2366 14.0952 60.8938 14.4194 60.7969C14.7429 60.701 15.1001 60.8878 15.217 61.2147C15.7737 62.7681 16.4365 64.2868 17.1969 65.763C17.357 66.0741 17.2401 66.4393 16.9362 66.5798C16.632 66.7185 16.2546 66.581 16.0945 66.2699L16.0952 66.2689ZM34.2091 83.2455C34.3316 82.9354 34.6912 82.7989 35.0125 82.9395C36.5678 83.6196 38.1362 84.1521 39.6999 84.5267C40.0378 84.6079 40.2632 84.9422 40.2019 85.2725C40.1399 85.6037 39.8162 85.8059 39.4783 85.7247C37.8378 85.3318 36.1941 84.7746 34.5683 84.0631C34.247 83.9224 34.0848 83.5558 34.2091 83.2455ZM22.1188 74.9295L22.0337 74.8511C20.8794 73.5713 19.8013 72.2133 18.8136 70.788C18.6126 70.5004 18.6773 70.1201 18.957 69.9391C19.2367 69.7582 19.6261 69.8447 19.8264 70.1333C20.7821 71.5093 21.8247 72.8228 22.9402 74.0604C23.1763 74.3217 23.1648 74.7116 22.9149 74.9298C22.7198 75.0989 22.4393 75.1145 22.2121 74.9901L22.1188 74.9295ZM25.7636 78.4794C25.4961 78.2501 25.452 77.8606 25.6672 77.6076C25.8828 77.3564 26.2752 77.3373 26.5426 77.5666C27.8337 78.6683 29.1826 79.6693 30.5716 80.5549C30.8685 80.7463 30.9688 81.1282 30.7952 81.4107C30.6219 81.695 30.2407 81.7703 29.9431 81.58C28.5 80.66 27.102 79.6224 25.7636 78.4794Z" fill="#004157"/>
</svg>
