<svg width="100" height="107" viewBox="0 0 100 107" fill="none" xmlns="http://www.w3.org/2000/svg">
<path d="M76.3566 62.8461L76.4121 62.776C77.3369 61.8 78.0813 60.7393 78.6221 59.627C78.7429 59.3787 79.0417 59.2748 79.2892 59.3952C79.5384 59.5165 79.6422 59.8152 79.5219 60.0627C78.9362 61.2701 78.1319 62.4155 77.1382 63.4636C76.9479 63.6637 76.6319 63.6722 76.4313 63.4828C76.2758 63.3344 76.2354 63.1101 76.3153 62.9238L76.3566 62.8461ZM79.4072 51.5493C79.6677 51.4579 79.9528 51.5949 80.0441 51.8553C80.5253 53.2248 80.7158 54.6231 80.621 56.0169C80.6024 56.2925 80.3636 56.5007 80.0885 56.4812C79.813 56.4626 79.6048 56.2238 79.6238 55.9496C79.7089 54.6911 79.5368 53.4283 79.1008 52.1871C79.0094 51.9266 79.1477 51.6411 79.4072 51.5493ZM69.8933 66.9807C71.1416 66.5122 72.3127 65.9312 73.3831 65.2501C73.6159 65.1021 73.9254 65.1717 74.0734 65.4045C74.2214 65.6373 74.1523 65.946 73.9196 66.094C72.7897 66.8125 71.5565 67.425 70.2436 67.917C69.9857 68.0142 69.6973 67.8835 69.6005 67.6247C69.5037 67.3659 69.6345 67.0775 69.8933 66.9807ZM74.3314 45.4562L74.3816 45.381C74.5539 45.1657 74.8693 45.1307 75.0841 45.3039C76.2316 46.2237 77.2046 47.1944 78.0003 48.2068C78.1716 48.4237 78.1336 48.7376 77.9168 48.9089C77.7005 49.0792 77.3851 49.0417 77.2139 48.8249C76.4667 47.8745 75.5478 46.9575 74.4587 46.0835C74.2921 45.9495 74.2328 45.7288 74.2967 45.5363L74.3314 45.4562ZM62.2668 68.3217C63.5909 68.3239 64.8955 68.2138 66.1636 67.9913C66.4359 67.9436 66.6943 68.1264 66.7425 68.3979C66.7901 68.6702 66.6082 68.929 66.3359 68.9767C65.0099 69.208 63.6474 69.3247 62.2639 69.3215C61.9878 69.3207 61.7645 69.0954 61.7652 68.8194C61.7659 68.5434 61.9899 68.3205 62.2668 68.3217ZM54.4972 66.9937C55.7576 67.4242 57.0271 67.7484 58.296 67.9693C58.5686 68.0169 58.7504 68.2756 58.7028 68.5482C58.6556 68.8199 58.3969 69.0017 58.1244 68.9541C56.8042 68.7252 55.4841 68.3876 54.1739 67.9397C53.9131 67.8508 53.7731 67.5668 53.8625 67.3051C53.9514 67.0443 54.2355 66.9043 54.4972 66.9937ZM68.0107 41.2494C69.2519 41.7354 70.4753 42.3229 71.6827 43.0128C71.9226 43.1495 72.0057 43.4554 71.8681 43.6948C71.7314 43.9347 71.4255 44.0178 71.1861 43.8802C70.0219 43.2155 68.8418 42.6488 67.6467 42.1806C67.3898 42.0801 67.262 41.7901 67.3625 41.5332C67.4634 41.2754 67.7529 41.1485 68.0107 41.2494ZM46.6969 63.5878L46.7409 63.5093C46.8992 63.282 47.2098 63.2264 47.4375 63.3838C48.541 64.1498 49.6655 64.8274 50.8057 65.4159C51.0508 65.5429 51.1474 65.8446 51.0204 66.0897C50.8943 66.3352 50.5925 66.4318 50.3466 66.3044C49.1671 65.6961 48.0069 64.9961 46.8674 64.2041C46.6898 64.0824 46.6165 63.8667 46.668 63.6698L46.6969 63.5878ZM60.0296 39.5461C61.3978 39.608 62.7476 39.7813 64.0798 40.0665C64.3494 40.1238 64.5212 40.3885 64.4634 40.6591C64.406 40.9287 64.1408 41.1014 63.8703 41.0435C62.5923 40.7714 61.2979 40.6049 59.9851 40.5453C59.7085 40.5329 59.4952 40.2994 59.5071 40.0236C59.5203 39.7475 59.7539 39.5342 60.0296 39.5461ZM51.9797 40.416C53.3287 40.0735 54.6631 39.8286 55.982 39.683C56.2566 39.6524 56.5043 39.851 56.534 40.1251C56.5647 40.3996 56.366 40.6474 56.092 40.6771C54.8197 40.8181 53.5312 41.0534 52.2268 41.3845C51.958 41.4533 51.686 41.2917 51.6181 41.0233C51.5506 40.7563 51.7123 40.4844 51.9797 40.416ZM40.7756 58.1108C40.979 57.9245 41.2958 57.9379 41.4826 58.1403C42.3982 59.1361 43.3367 60.059 44.2975 60.91C44.504 61.0924 44.5238 61.4088 44.34 61.6157C44.1568 61.8218 43.8404 61.8415 43.6344 61.6582C42.6481 60.7846 41.6853 59.8374 40.7461 58.8178C40.5598 58.6144 40.5718 58.298 40.7756 58.1108ZM44.3831 43.302C45.6291 42.6782 46.8633 42.1319 48.0844 41.6613C48.3419 41.5627 48.6312 41.6917 48.7312 41.9488C48.8298 42.2062 48.7008 42.4956 48.4437 42.5955C47.2525 43.0525 46.0476 43.5862 44.8306 44.196C44.5837 44.3195 44.2833 44.2197 44.1598 43.9728C44.0364 43.7258 44.1361 43.4255 44.3831 43.302ZM36.0036 51.7874C36.2347 51.6363 36.5453 51.7018 36.6964 51.9329C37.4358 53.0682 38.199 54.146 38.9829 55.1657C39.1518 55.3847 39.1108 55.6981 38.8927 55.8675C38.6728 56.036 38.3593 55.9949 38.1904 55.7759C37.3896 54.7348 36.6117 53.6356 35.8577 52.4789C35.707 52.247 35.7716 51.9381 36.0036 51.7874ZM37.4789 47.4604C38.6134 46.665 39.7396 45.9299 40.8564 45.2531C41.0922 45.1101 41.3994 45.1864 41.5424 45.4222C41.6854 45.658 41.61 45.9656 41.3742 46.1086C40.2766 46.7729 39.1703 47.496 38.0522 48.2797C37.8263 48.4381 37.5146 48.3833 37.3561 48.1574C37.1981 47.9306 37.253 47.6188 37.4789 47.4604ZM31.1349 52.4435C32.1746 51.5411 33.2073 50.6859 34.2329 49.878C34.4489 49.7063 34.7638 49.7447 34.935 49.9616C35.1053 50.1779 35.0683 50.4924 34.8514 50.6636C33.8381 51.4611 32.8187 52.3063 31.79 53.1987C31.5805 53.3795 31.2653 53.3567 31.084 53.1481C30.9041 52.9391 30.9264 52.6248 31.1349 52.4435ZM32.1521 44.7769C32.4008 44.6566 32.6996 44.7613 32.8199 45.0099C33.4082 46.2313 34.0177 47.4063 34.6468 48.5339C34.7811 48.7753 34.6956 49.0809 34.4542 49.2153C34.2128 49.3496 33.9081 49.2623 33.7733 49.0218C33.1343 47.8765 32.5163 46.6834 31.9183 45.4443C31.7993 45.1952 31.9035 44.8973 32.1521 44.7769ZM25.2749 57.9435C26.2394 56.9717 27.1976 56.0372 28.1499 55.1416C28.3515 54.9521 28.668 54.9619 28.8566 55.163C29.0466 55.3638 29.0368 55.6803 28.8351 55.8698C27.8916 56.7576 26.9417 57.6828 25.9863 58.6482C25.7912 58.8446 25.4735 58.8455 25.2781 58.6509C25.0826 58.4562 25.0807 58.1403 25.2749 57.9435ZM48.5352 9.81776C49.8172 9.38183 51.1317 9.03574 52.4708 8.78199C52.7428 8.73071 53.0036 8.90909 53.0553 9.18016C53.1066 9.45211 52.9282 9.71288 52.6571 9.76462C51.3634 10.0097 50.0948 10.344 48.857 10.7649C48.5949 10.8531 48.3117 10.7126 48.2225 10.4523C48.1343 10.1901 48.2739 9.90644 48.5352 9.81776ZM11.2105 67.3994C11.452 67.435 11.6294 67.6404 11.6359 67.8772L11.6309 67.9675L10.5685 75.1591L12.1566 73.111C12.3249 72.8925 12.6395 72.8526 12.8576 73.0219C13.052 73.1717 13.1048 73.4366 12.9952 73.6467L12.9468 73.7229L11.3578 75.7727L18.0578 72.9455C18.2835 72.8492 18.5404 72.9326 18.6705 73.131L18.7132 73.2103C18.8077 73.4373 18.7242 73.6942 18.5259 73.8243L18.447 73.8661L9.98839 77.4353C9.65647 77.5759 9.3021 77.3307 9.29376 76.9887L9.29956 76.9012L10.6415 67.8216C10.6815 67.5484 10.935 67.3593 11.2091 67.3998L11.2105 67.3994ZM19.7369 63.8901L19.7907 63.8167C20.6952 62.7937 21.5948 61.8032 22.4887 60.8448C22.6768 60.6424 22.9938 60.6321 23.1953 60.8197C23.3972 61.0087 23.408 61.3248 23.2204 61.5263C22.332 62.4786 21.4383 63.4621 20.5393 64.479C20.3565 64.6864 20.0406 64.7052 19.8341 64.5229C19.6722 64.3801 19.625 64.1579 19.6987 63.9683L19.7369 63.8901ZM14.5691 70.0223L14.6202 69.9475C15.4732 68.8892 16.3229 67.8585 17.1692 66.8555C17.3472 66.6444 17.6619 66.617 17.8731 66.795C18.0842 66.973 18.1111 67.2886 17.9331 67.4998C17.0932 68.4971 16.2472 69.523 15.3974 70.5751C15.2242 70.79 14.9093 70.824 14.6945 70.6508C14.527 70.5164 14.47 70.2958 14.5344 70.1024L14.5691 70.0223ZM29.5761 37.3236C29.8483 37.2804 30.1039 37.4685 30.1471 37.7407C30.3473 39.04 30.6959 40.2902 31.192 41.4762C31.2987 41.7312 31.1781 42.0239 30.9231 42.1306C30.6681 42.2373 30.3754 42.1167 30.2696 41.8622C29.7423 40.6007 29.3706 39.2725 29.1581 37.8942C29.1154 37.6211 29.3044 37.366 29.5761 37.3236ZM41.3366 13.4309C42.4552 12.6634 43.6259 11.9723 44.8389 11.3638C45.0863 11.2394 45.3866 11.3392 45.511 11.5866C45.6345 11.8335 45.5347 12.1338 45.2878 12.2573C44.1143 12.845 42.9839 13.5133 41.9018 14.255C41.6737 14.4111 41.3624 14.3532 41.2058 14.126C41.0505 13.8983 41.1076 13.5866 41.3357 13.4305L41.3366 13.4309ZM30.2273 29.374C30.4949 29.4417 30.6563 29.7133 30.5887 29.9809C30.262 31.2762 30.0561 32.5679 29.977 33.8408C29.9597 34.116 29.7222 34.326 29.4471 34.3088C29.1711 34.291 28.9619 34.054 28.9791 33.7789C29.0621 32.4434 29.2771 31.0898 29.6192 29.7358C29.6868 29.4682 29.9593 29.3051 30.2273 29.374ZM35.2104 19.0181L35.2615 18.9434C36.1292 17.9087 37.0707 16.9269 38.0794 16.0103C38.2827 15.8239 38.5986 15.8391 38.7845 16.0433C38.9703 16.2476 38.9561 16.5639 38.7518 16.7498C37.7783 17.6364 36.8676 18.5859 36.0286 19.586C35.8514 19.7976 35.5353 19.8254 35.3238 19.6482C35.1595 19.5098 35.1069 19.2893 35.1749 19.0978L35.2104 19.0181ZM32.8671 22.2389C33.0139 22.0055 33.3217 21.9336 33.5564 22.0801C33.7898 22.2269 33.8612 22.5356 33.7144 22.7689C33.0099 23.895 32.3949 25.0573 31.8787 26.2405C31.7667 26.4936 31.473 26.6091 31.2203 26.4985C30.9663 26.3883 30.8512 26.0937 30.9623 25.8402C31.4985 24.611 32.1361 23.4063 32.8671 22.2389Z" fill="#004157"/>
</svg>
