<?xml version="1.0" encoding="UTF-8"?>
<svg id="bargapp" xmlns="http://www.w3.org/2000/svg" viewBox="0 0 1484.88 414.8">
  <defs>
    <style>
      .cls-1 {
        fill: #79af42;
      }

      .cls-1, .cls-2, .cls-3, .cls-4 {
        stroke-width: 0px;
      }

      .cls-2 {
        fill: #76ad42;
      }

      .cls-3 {
        fill: #1c2b45;
      }

      .cls-4 {
        fill: #1c2b42;
      }
    </style>
  </defs>
  <g id="logo">
    <path class="cls-2" d="m4.72,199.66L170.72,60.24c51.16-42.97,111.11-50.06,179.84-21.29,20.24,10.72,37.36,24.42,51.37,41.11l20.75,24.7c4.43,7.51,3.9,13.57-1.58,18.18l-69.5,58.37c-7.32,4.66-13.38,4.13-18.18-1.58l-20.75-24.7c-23.98-21.42-46.41-23.37-67.27-5.85l-166,139.42c-7.32,4.66-13.38,4.13-18.18-1.58L3.13,217.84c-4.65-7.32-4.13-13.38,1.58-18.18Z"/>
    <path class="cls-3" d="m600.49,211.04l-166,139.42c-51.16,42.97-111.11,50.06-179.84,21.29-20.24-10.72-37.36-24.42-51.37-41.11l-20.75-24.7c-4.43-7.51-3.9-13.57,1.58-18.18l69.5-58.37c7.32-4.66,13.38-4.13,18.18,1.58l20.75,24.7c23.98,21.42,46.41,23.37,67.27,5.85l166-139.42c7.32-4.66,13.38-4.13,18.18,1.58l58.09,69.17c4.65,7.32,4.13,13.38-1.58,18.18Z"/>
  </g>
  <g id="logo_type" data-name="logo type">
    <g>
      <path class="cls-1" d="m833.01,45.85h-59.86c-4.94,0-7.79,2.85-8.55,8.55v143.65c0,18.05-10.55,28.6-31.64,31.64h-46.33c-4.94,0-7.79,2.85-8.55,8.55v60.14c0,4.75,2.85,7.6,8.55,8.55h46.33c14.44,0,28.69-2.85,42.75-8.55,43.89-22.61,65.84-56.06,65.84-100.33V54.4c0-4.94-2.85-7.79-8.55-8.55Z"/>
      <path class="cls-1" d="m982.94,45.85h-21.38c-14.44,0-28.69,2.85-42.75,8.55-43.89,22.61-65.84,56.06-65.84,100.33v201.58c0,4.94,2.85,7.79,8.55,8.55h59.86c4.94,0,7.79-2.85,8.55-8.55v-201.58c0-18.05,10.55-28.6,31.64-31.64h21.38c4.94,0,7.79-2.85,8.55-8.55v-60.14c0-4.75-2.85-7.6-8.55-8.55Z"/>
      <path class="cls-1" d="m829.44,317.27h-146.19c-2.62,0-4.75,2.13-4.75,4.75v38.08c0,2.62,2.13,4.75,4.75,4.75h146.19c2.62,0,4.75-2.13,4.75-4.75v-38.08c0-2.62-2.13-4.75-4.75-4.75Z"/>
    </g>
    <g>
      <path class="cls-4" d="m1259.59,45.85h-21.38c-14.44,0-28.69,2.85-42.75,8.55-43.89,22.61-65.84,56.06-65.84,100.33v201.58c0,4.94,2.85,7.79,8.55,8.55h59.86c4.94,0,7.79-2.85,8.55-8.55v-201.58c0-18.05,10.55-28.6,31.64-31.64h21.38c4.94,0,7.79-2.85,8.55-8.55v-60.14c0-4.75-2.85-7.6-8.55-8.55Z"/>
      <path class="cls-4" d="m1259.3,136.51h-11.51c-15.91,0-28.81,12.9-28.81,28.81v11.51c0,4.01,3.25,7.26,7.26,7.26h33.06c4.01,0,7.26-3.25,7.26-7.26v-33.06c0-4.01-3.25-7.26-7.26-7.26Z"/>
      <path class="cls-4" d="m1113.27,45.09h-97.63c-2.62,0-4.75,2.13-4.75,4.75v38.08c0,2.62,2.13,4.75,4.75,4.75h97.63c2.62,0,4.75-2.13,4.75-4.75v-38.08c0-2.62-2.13-4.75-4.75-4.75Z"/>
      <path class="cls-4" d="m1109.47,104.53h-97.85c-2.62,0-4.75,2.13-4.75,4.75v88.95c0,2.62,2.13,4.75,4.75,4.75h29.45v53.75c0,18.05-10.55,28.6-31.64,31.64h-21.38c-4.94,0-7.79,2.85-8.55,8.55v60.14c0,4.75,2.85,7.6,8.55,8.55h21.38c14.44,0,28.69-2.85,42.75-8.55,43.89-22.61,65.84-56.06,65.84-100.33V113.08c0-4.94-2.85-7.79-8.55-8.55Z"/>
    </g>
  </g>
</svg>