<svg width="112" height="108" fill="none" xmlns="http://www.w3.org/2000/svg"><path d="M56.54 87.004c-1.907 0-3.49-1.529-3.49-3.372V74.19c0-1.844 1.583-3.373 3.49-3.373 1.909 0 3.491 1.53 3.491 3.373v9.442c0 1.843-1.582 3.372-3.49 3.372z" fill="#DDD"/><path d="M83.297 102.291H29.781v-7.868c0-6.835 5.724-12.365 12.797-12.365H70.5c7.073 0 12.797 5.53 12.797 12.365v7.868zm-46.535-6.744h39.555v-1.124c0-3.103-2.606-5.62-5.817-5.62H42.578c-3.21 0-5.816 2.517-5.816 5.62v1.124z" fill="#DDD"/><path d="M84.462 102.291H28.619c-1.908 0-3.49-1.528-3.49-3.372 0-1.843 1.582-3.372 3.49-3.372h55.843c1.908 0 3.49 1.529 3.49 3.372 0 1.844-1.582 3.372-3.49 3.372zm1.305-46.356a3.601 3.601 0 01-2.653-1.169c-.884-.989-1.116-2.383-.558-3.552 1.582-3.507 2.373-7.239 2.373-11.15v-13.49c0-1.574-.279-3.102-.837-4.72-.047-.136-.093-.316-.14-.495a9.787 9.787 0 01-.186-1.979c0-1.843 1.582-3.372 3.49-3.372h2.792c8.33 0 15.124 6.744 15.124 15.063 0 6.879-2.931 13.668-8.004 18.57-.093.09-.372.314-.419.36-2.745 2.202-5.863 4.675-10.051 5.8a3.33 3.33 0 01-.931.134zm5.817-33.048a19.72 19.72 0 01.326 3.687v13.49c0 1.843-.14 3.596-.42 5.395.28-.225.513-.405.792-.63 3.723-3.597 5.91-8.633 5.91-13.759 0-4.046-2.839-7.463-6.608-8.183zm-65.62 32.868c-.373 0-.698-.045-1.07-.18-3.817-1.169-7.4-3.327-10.378-6.205-5.352-5.71-8.004-11.96-8.004-18.57 0-8.183 6.654-14.613 15.124-14.613h3.025c1.163 0 2.28.585 2.931 1.53.652.944.745 2.158.28 3.192-.745 1.618-1.117 3.462-1.117 5.395v13.49c0 3.866.79 7.643 2.42 11.24.558 1.214.279 2.608-.605 3.597a3.626 3.626 0 01-2.606 1.124zm-5.957-32.688c-3.77.72-6.515 3.867-6.515 7.734 0 4.9 2.048 9.622 6.096 13.938.186.225.419.405.652.585a31.697 31.697 0 01-.466-5.53v-13.49c0-1.079.093-2.158.233-3.237z" fill="#DDD"/><path d="M55.842 75.313c-19.87 0-36.065-15.647-36.065-34.846v-13.49c0-11.78 9.912-21.357 22.105-21.357h27.921c12.192 0 22.104 9.577 22.104 21.358v13.489c0 19.2-16.194 34.846-36.065 34.846zm-13.96-62.948c-8.33 0-15.124 6.564-15.124 14.613v13.489c0 15.512 13.03 28.102 29.084 28.102 16.055 0 29.085-12.59 29.085-28.102v-13.49c0-8.048-6.794-14.612-15.124-14.612H41.882z" fill="#DDD"/></svg>