<svg width="21" height="18" viewBox="0 0 21 18" fill="none" xmlns="http://www.w3.org/2000/svg">
<path fill-rule="evenodd" clip-rule="evenodd" d="M13.4636 6.54022H13.342C11.359 6.54022 9.37655 6.80197 7.39523 7.3249L7.36945 7.33163C6.93395 7.45942 6.63409 7.83607 6.6212 8.27045L6.61951 8.34723C6.56515 10.6256 7.09537 12.5683 8.2113 14.1696C9.42979 15.9166 11.1141 16.9232 13.2484 17.1788L13.342 17.1895L13.4333 17.1788C15.5688 16.9232 17.2531 15.9166 18.471 14.1696C19.5875 12.5683 20.1177 10.6256 20.0633 8.34779L20.0617 8.27101L20.0605 8.24466C20.0353 7.81869 19.7383 7.45606 19.3168 7.33275L19.291 7.32546L19.1649 7.29239C17.2643 6.80141 15.3637 6.55087 13.4631 6.54078L13.4636 6.54022Z" fill="#FFCA3D"/>
<path fill-rule="evenodd" clip-rule="evenodd" d="M9.53698 7.10626V0.935303L2.13184 9.98604H6.6572V16.157L14.0624 7.10626H9.53698Z" stroke="#004157" stroke-opacity="0.2" stroke-width="0.888109" stroke-linecap="round" stroke-linejoin="round"/>
<path d="M0.123187 0.123187C0.272276 -0.026463 0.505999 -0.0393542 0.670222 0.0822713L0.717303 0.123187L2.84771 2.25304C3.01193 2.41782 3.01193 2.68349 2.84771 2.84771C2.69862 2.99736 2.4649 3.01025 2.30068 2.88863L2.2536 2.84771L0.123187 0.717863C-0.0410357 0.55252 -0.0410357 0.286849 0.123187 0.123187ZM2.25304 13.7576C2.41782 13.5939 2.68349 13.5939 2.84771 13.7576C2.99736 13.9072 3.01025 14.1404 2.88863 14.3052L2.84771 14.3523L0.717863 16.4827C0.55308 16.6469 0.287409 16.6469 0.123187 16.4827C-0.026463 16.3336 -0.0393542 16.0999 0.0822713 15.9356L0.123187 15.888L2.25304 13.7581V13.7576ZM13.7576 13.7576C13.9072 13.6085 14.1404 13.595 14.3052 13.7172L14.3523 13.7576L16.4827 15.888C16.6469 16.0522 16.6469 16.3184 16.4827 16.4827C16.3336 16.6318 16.0999 16.6452 15.9356 16.5236L15.888 16.4827L13.7581 14.3528C13.5939 14.188 13.5939 13.9218 13.7581 13.7576H13.7576ZM15.888 0.123187C16.0522 -0.0410357 16.3184 -0.0410357 16.4827 0.123187C16.6318 0.272276 16.6452 0.505999 16.5236 0.670222L16.4827 0.717303L14.3528 2.84771C14.188 3.01193 13.9218 3.01193 13.7576 2.84771C13.6085 2.69862 13.595 2.4649 13.7172 2.30068L13.7576 2.2536L15.888 0.123187Z" fill="#004157"/>
</svg>
