<svg width="84" height="24" fill="none" xmlns="http://www.w3.org/2000/svg"><path d="M41.545 12.017l11.206-9.411c3.453-2.901 7.5-3.38 12.14-1.438a11.493 11.493 0 013.467 2.775l1.4 1.668c.3.507.264.916-.106 1.227l-4.691 3.94c-.494.315-.903.279-1.227-.107l-1.401-1.667c-1.619-1.446-3.133-1.577-4.541-.395L46.587 18.02c-.495.315-.904.28-1.228-.106l-3.92-4.67c-.315-.494-.28-.903.106-1.227z" fill="#76AD42"/><path d="M83.64 11.755l-11.205 9.41c-3.454 2.901-7.5 3.38-12.14 1.438a11.494 11.494 0 01-3.467-2.775l-1.401-1.667c-.3-.507-.263-.916.107-1.228l4.691-3.94c.494-.314.903-.279 1.227.107l1.4 1.667c1.62 1.446 3.134 1.578 4.542.395l11.205-9.411c.494-.315.903-.279 1.227.107l3.922 4.669c.313.494.278.903-.107 1.227z" fill="#fff" fill-opacity=".8"/><path d="M10.458 1.095h-4.04c-.334 0-.526.193-.578.577v9.697c0 1.219-.712 1.93-2.135 2.136H.577c-.333 0-.526.192-.577.577v4.06c0 .32.192.513.577.577h3.128a7.62 7.62 0 002.885-.577c2.963-1.527 4.445-3.785 4.445-6.773V1.672c0-.333-.193-.525-.578-.577h.001zm10.12 0h-1.443c-.975 0-1.937.193-2.886.577-2.963 1.527-4.444 3.785-4.444 6.773v13.607c0 .334.192.526.577.577h4.04c.334 0 .526-.192.578-.577V8.445c0-1.219.712-1.93 2.136-2.136h1.443c.333 0 .526-.192.577-.577v-4.06c0-.32-.193-.513-.577-.577h-.001zm-10.36 18.321H.35a.32.32 0 00-.32.321v2.57a.32.32 0 00.32.321h9.868a.32.32 0 00.32-.32v-2.57a.32.32 0 00-.32-.322z" fill="#79AF42"/><path d="M39.252 1.095h-1.443c-.975 0-1.937.193-2.886.577-2.963 1.527-4.445 3.785-4.445 6.773v13.607c0 .334.193.526.578.577h4.04c.334 0 .526-.192.578-.577V8.445c0-1.219.712-1.93 2.135-2.136h1.444c.333 0 .525-.192.577-.577v-4.06c0-.32-.193-.513-.578-.577z" fill="#fff" fill-opacity=".8"/><path d="M39.233 7.215h-.776c-1.075 0-1.945.87-1.945 1.945v.777c0 .27.22.49.49.49h2.231a.49.49 0 00.49-.49V7.705a.49.49 0 00-.49-.49zm-9.855-6.172h-6.59a.32.32 0 00-.321.321v2.57c0 .177.144.321.32.321h6.59a.32.32 0 00.321-.32v-2.57a.32.32 0 00-.32-.322zm-.259 4.013h-6.605a.321.321 0 00-.32.32v6.005c0 .177.143.32.32.32h1.988v3.629c0 1.218-.712 1.93-2.136 2.136h-1.443c-.334 0-.526.192-.577.577v4.06c0 .32.192.513.577.577h1.443a7.62 7.62 0 002.886-.578c2.963-1.526 4.444-3.784 4.444-6.772V5.633c0-.333-.192-.526-.577-.577z" fill="#fff" fill-opacity=".8"/></svg>