<svg width="916" height="356" viewBox="0 0 916 356" fill="none" xmlns="http://www.w3.org/2000/svg">
<g clip-path="url(#clip0_361_22)">
<mask id="mask0_361_22" style="mask-type:luminance" maskUnits="userSpaceOnUse" x="0" y="0" width="916" height="356">
<path d="M0 0H916V356H0V0Z" fill="white"/>
</mask>
<g mask="url(#mask0_361_22)">
<path d="M891.076 0.760043C893.259 0.750043 895.442 0.719043 897.625 0.687043L901.828 0.672043L905.638 0.644043C909.282 1.03004 911.111 1.78804 914 4.00004C916.371 7.55704 916.258 9.10004 916.275 13.32L916.304 17.274L916.301 21.554L916.314 25.945C916.321 29.013 916.321 32.082 916.316 35.15C916.31 39.076 916.327 43.002 916.35 46.929C916.365 49.952 916.366 52.975 916.363 55.999C916.363 57.446 916.368 58.893 916.378 60.34C916.387 62.367 916.385 64.3941 916.372 66.421L916.374 69.913C915.922 73.643 914.676 76.324 912 79C910.215 79.122 908.426 79.18 906.637 79.21C905.521 79.24 904.405 79.268 903.256 79.297C900.92 79.348 898.584 79.393 896.248 79.43C884.493 79.752 872.416 81.459 863.25 89.375C856.142 97.668 854.685 105.317 854.748 115.983L854.739 118.582C854.732 121.431 854.738 124.279 854.745 127.128L854.734 133.285C854.726 137.691 854.723 142.098 854.726 146.505C854.728 153.471 854.714 160.438 854.697 167.405C854.65 187.211 854.626 207.017 854.619 226.823C854.615 237.771 854.597 248.719 854.564 259.668C854.544 266.595 854.541 273.522 854.552 280.45C854.555 284.753 854.541 289.057 854.522 293.361C854.517 295.359 854.518 297.356 854.527 299.354C854.538 302.078 854.525 304.801 854.506 307.525L854.533 309.926C854.482 313.626 854.115 315.813 852.158 318.991C849.194 321.75 847.378 321.616 843.367 321.599L841.375 321.611C839.208 321.618 837.042 321.589 834.875 321.559C833.366 321.554 831.856 321.552 830.347 321.552C827.186 321.545 824.026 321.523 820.865 321.487C816.817 321.442 812.769 321.427 808.72 321.423C805.604 321.419 802.488 321.404 799.372 321.384C797.879 321.376 796.387 321.369 794.894 321.364C792.807 321.354 790.72 321.334 788.633 321.306L785.036 321.274C782.04 321.004 780.388 320.806 778 319C775.677 314.631 775.719 310.369 775.746 305.541L775.737 302.965C775.729 300.119 775.735 297.272 775.741 294.425C775.739 292.383 775.735 290.341 775.731 288.299C775.721 282.748 775.725 277.198 775.731 271.648C775.736 265.829 775.732 260.01 775.729 254.191C775.725 244.405 775.73 234.62 775.739 224.835C775.75 213.556 775.747 202.276 775.736 190.997C775.726 181.296 775.725 171.594 775.73 161.893C775.734 156.107 775.734 150.322 775.727 144.536C775.722 139.082 775.726 133.629 775.737 128.176C775.74 126.186 775.739 124.197 775.735 122.208C775.704 106.95 775.97 91.549 780.625 76.875L781.413 74.347C790.747 45.765 813.003 24.935 839 11C855.318 2.72504 873.048 0.809043 891.076 0.760043Z" fill="#2D4B74"/>
<path d="M614.453 0.683953C616.592 0.687953 618.73 0.663953 620.869 0.638953C622.247 0.635953 623.626 0.635953 625.004 0.636953L628.717 0.626953C633.258 1.14395 635.813 2.81395 639 5.99995C639.267 8.78795 639.267 8.78795 639.291 12.39L639.311 14.376C639.33 16.549 639.334 18.722 639.336 20.895L639.356 25.424C639.368 28.592 639.372 31.761 639.371 34.929C639.37 38.984 639.398 43.039 639.432 47.095C639.454 50.215 639.458 53.335 639.457 56.455C639.46 57.95 639.469 59.445 639.484 60.939C639.504 63.034 639.498 65.127 639.486 67.222L639.494 70.831C638.9 74.64 637.718 76.308 635 79C632.35 79.612 632.35 79.612 629.344 79.602L625.992 79.648L622.5 79.625C609.597 79.625 596.279 80.575 586.219 89.598C580.15 96.128 578.546 103.283 578.621 111.939L578.608 114.56C578.596 117.439 578.606 120.318 578.615 123.198C578.611 125.27 578.606 127.342 578.599 129.414C578.587 133.866 578.585 138.317 578.589 142.769C578.596 149.807 578.58 156.845 578.561 163.883C578.525 180.089 578.503 196.294 578.497 212.5C578.487 227.363 578.47 242.226 578.429 257.089C578.411 264.087 578.406 271.086 578.414 278.084C578.416 282.433 578.405 286.781 578.391 291.13C578.387 293.149 578.388 295.167 578.395 297.185C578.403 299.938 578.393 302.69 578.379 305.442L578.399 307.869C578.34 313.691 577.079 316.921 573 321C570.212 321.267 570.212 321.267 566.61 321.291L564.624 321.311C562.451 321.33 560.278 321.334 558.105 321.336L553.576 321.356C550.408 321.368 547.239 321.372 544.071 321.371C540.016 321.37 535.961 321.398 531.905 321.432C528.785 321.454 525.665 321.458 522.545 321.457C521.05 321.46 519.555 321.469 518.061 321.484C515.966 321.504 513.873 321.498 511.778 321.486L508.169 321.494C504.171 320.871 502.757 319.965 500 317C499.504 313.896 499.332 311.341 499.379 308.237L499.359 305.526C499.344 302.521 499.364 299.517 499.385 296.513C499.381 294.361 499.376 292.209 499.368 290.057C499.354 284.203 499.371 278.349 499.394 272.495C499.414 266.362 499.408 260.229 499.406 254.096C499.406 243.782 499.426 233.469 499.458 223.156C499.493 211.261 499.506 199.367 499.497 187.472C499.49 176.013 499.501 164.554 499.521 153.095C499.529 148.229 499.532 143.363 499.53 138.498C499.529 132.749 499.543 127 499.569 121.251C499.576 119.152 499.578 117.053 499.575 114.953C499.539 87.289 505.495 62.423 524 41L525.676 38.922C532.965 30.085 542.444 23.214 552 17L555.035 15C561.775 10.838 568.413 7.92795 576 5.62495L578.369 4.90195C590.226 1.53795 602.196 0.645953 614.453 0.683953Z" fill="#79AF42"/>
<path d="M660.162 59.7459L662.804 59.7289L665.71 59.7409L668.766 59.7309C672.112 59.7209 675.458 59.7279 678.805 59.7339L685.763 59.7289C690.63 59.7259 695.497 59.7289 700.365 59.7389C706.608 59.7509 712.852 59.7439 719.095 59.7319C723.887 59.7249 728.679 59.7269 733.471 59.7319C735.774 59.7339 738.076 59.7319 740.378 59.7269C743.596 59.7219 746.813 59.7299 750.031 59.7409L752.925 59.7289L755.584 59.7459L757.889 59.7479C760.385 60.0459 761.907 60.6029 764 61.9999C766.335 65.2799 766.251 68.3149 766.254 72.2579L766.271 76.1559L766.259 80.4289L766.269 84.9339C766.279 89.0149 766.275 93.0959 766.269 97.1779C766.264 101.461 766.268 105.744 766.271 110.028C766.275 117.234 766.27 124.44 766.261 131.646C766.25 139.941 766.253 148.237 766.264 156.532C766.274 163.674 766.275 170.815 766.27 177.957C766.266 182.213 766.266 186.469 766.273 190.725C766.278 194.741 766.274 198.756 766.263 202.771C766.26 204.232 766.261 205.692 766.265 207.153C766.344 235.56 759.985 262.773 740 284L737.52 286.719C717.061 308.236 690.551 321.356 660.749 322.233C656.896 322.313 653.042 322.361 649.188 322.375L646.88 322.399C644.684 322.415 642.489 322.414 640.293 322.398L636.403 322.388C632.753 321.972 630.895 321.219 628 319C625.644 315.466 625.742 313.975 625.725 309.788L625.696 305.904L625.699 301.699L625.686 297.383C625.679 294.366 625.679 291.349 625.684 288.332C625.69 284.475 625.673 280.619 625.65 276.762C625.635 273.79 625.634 270.817 625.638 267.844C625.637 266.423 625.632 265.001 625.622 263.58C625.609 261.587 625.618 259.594 625.628 257.6L625.626 254.169C626.055 250.537 627.115 248.118 629 245C631.645 243.678 633.685 243.856 636.645 243.824C659.958 243.813 659.958 243.813 680 233C687.292 224.365 687.312 214.332 687.414 203.531L687.473 199.664C687.522 196.298 687.564 192.931 687.601 189.564C687.641 186.118 687.692 182.672 687.742 179.227C687.838 172.484 687.923 165.742 688 159L685.094 159.032C681.542 159.068 677.99 159.091 674.438 159.11C672.9 159.12 671.361 159.134 669.823 159.151C667.614 159.175 665.405 159.186 663.195 159.195L661.106 159.227C659.402 159.227 657.699 159.122 656 159C653.341 156.341 653.754 154.362 653.729 150.745L653.741 148.084L653.731 145.285C653.722 142.221 653.728 139.158 653.734 136.094L653.729 129.727C653.726 125.275 653.73 120.823 653.739 116.371C653.751 110.654 653.744 104.937 653.732 99.2199C653.726 94.8365 653.726 90.4532 653.732 86.0699C653.734 83.9599 653.732 81.8519 653.727 79.7439C653.722 76.8009 653.73 73.8589 653.741 70.9159L653.729 68.2559C653.77 62.4639 653.973 59.7519 660.162 59.7459Z" fill="#2D4B74"/>
<path d="M423.212 0.724945L427.096 0.695945C428.498 0.695945 429.899 0.697945 431.301 0.698945L435.617 0.685945C438.634 0.678945 441.651 0.678945 444.668 0.683945C448.525 0.689945 452.381 0.673945 456.238 0.649945C459.21 0.634945 462.183 0.633945 465.156 0.636945C466.577 0.636945 467.998 0.631945 469.42 0.621945C471.413 0.608945 473.406 0.617945 475.4 0.627945L478.831 0.625945C482.463 1.05495 484.882 2.11595 488 3.99995C489.407 6.81295 489.136 9.15295 489.147 12.2999L489.158 14.2819C489.169 16.4839 489.173 18.6859 489.177 20.8879L489.197 25.6139C489.218 30.8039 489.228 35.9939 489.238 41.1839L489.251 46.5559C489.27 54.9829 489.284 63.4099 489.292 71.8369C489.302 81.5299 489.328 91.2229 489.369 100.916C489.399 108.424 489.414 115.933 489.417 123.441C489.419 127.916 489.428 132.391 489.453 136.865C489.651 173.597 484.939 203.078 458.438 230.938C443.469 245.517 425.41 256.387 405 261L402.704 261.519C394.834 263.127 387.113 263.344 379.102 263.371L374.88 263.398C371.954 263.415 369.027 263.423 366.101 263.426C362.358 263.431 358.617 263.469 354.874 263.514C351.978 263.544 349.082 263.551 346.186 263.552C344.805 263.556 343.425 263.569 342.045 263.59C340.119 263.611 338.194 263.614 336.268 263.599L332.957 263.615C328.909 262.773 327.453 261.288 325 258C324.379 254.889 324.379 254.889 324.385 251.361L324.368 249.403C324.356 247.278 324.38 245.156 324.406 243.031C324.408 241.548 324.408 240.065 324.406 238.582C324.408 235.478 324.426 232.375 324.458 229.272C324.498 225.301 324.502 221.33 324.495 217.359C324.491 214.298 324.504 211.237 324.521 208.176C324.528 206.712 324.531 205.248 324.53 203.784C324.532 201.735 324.553 199.687 324.58 197.639L324.606 194.111C325.042 190.668 325.94 188.768 328 186C330.48 184.76 332.159 184.862 334.934 184.842L338.051 184.811L341.438 184.789L348.527 184.703C352.255 184.662 355.983 184.625 359.711 184.599C363.308 184.571 366.904 184.525 370.5 184.477L373.838 184.467C384.795 184.294 394.187 181.7 403 175C408.343 169.444 410.247 163.169 410.258 155.51L410.279 151.611C410.277 150.197 410.274 148.783 410.271 147.369L410.287 142.874C410.299 139.654 410.304 136.434 410.305 133.214C410.307 128.121 410.325 123.027 410.346 117.934C410.395 105.285 410.426 92.6359 410.447 79.9869C410.464 70.1519 410.486 60.3169 410.53 50.4829C410.552 45.4209 410.56 40.3599 410.558 35.2989C410.559 32.1489 410.573 28.9989 410.591 25.8489C410.596 24.3889 410.597 22.9309 410.592 21.4729C410.586 19.4789 410.6 17.4839 410.615 15.4899L410.621 12.1109C411.062 8.48995 412.102 6.10295 414 2.99995C417.534 0.643945 419.025 0.741945 423.212 0.724945ZM327 273C329.63 272.625 329.63 272.625 333.036 272.626L336.936 272.605L341.24 272.628C346.837 272.607 352.435 272.608 358.032 272.63C362.309 272.641 366.585 272.637 370.862 272.635C378.044 272.634 385.227 272.645 392.41 272.664C400.722 272.685 409.035 272.688 417.348 272.682C425.333 272.677 433.319 272.682 441.304 272.693C444.708 272.698 448.111 272.699 451.515 272.697C455.52 272.695 459.526 272.703 463.531 272.719C465.004 272.723 466.477 272.724 467.95 272.721C469.955 272.718 471.96 272.728 473.964 272.739L477.37 272.746C480 273 480 273 482 275C482.254 276.853 482.254 276.853 482.259 279.127L482.278 281.706L482.266 284.496L482.271 287.358C482.273 289.358 482.269 291.358 482.261 293.358C482.25 296.422 482.261 299.485 482.273 302.549C482.272 304.49 482.27 306.43 482.266 308.371L482.278 311.155L482.259 313.744L482.254 316.02C482 318 482 318 480 321C477.37 321.378 477.37 321.378 473.964 321.381L470.064 321.407L465.76 321.388C460.163 321.414 454.565 321.419 448.968 321.403C444.691 321.395 440.415 321.402 436.138 321.407C428.956 321.413 421.773 321.405 414.59 321.391C406.277 321.376 397.965 321.378 389.652 321.397C382.525 321.41 375.397 321.412 368.269 321.404C364.008 321.4 359.747 321.399 355.485 321.409C351.48 321.418 347.475 321.412 343.469 321.394C341.996 321.39 340.523 321.391 339.05 321.398C337.045 321.406 335.04 321.394 333.036 321.381L329.63 321.378L327 321C324.955 317.933 324.749 317.308 324.741 313.852L324.722 311.333L324.734 308.625L324.729 305.834C324.727 303.888 324.731 301.941 324.739 299.994C324.75 297.012 324.739 294.029 324.727 291.047C324.728 289.156 324.73 287.266 324.734 285.375L324.722 282.667L324.741 280.148L324.746 277.935C325 276 325 276 327 273Z" fill="#79AF42"/>
<path d="M78 243C80.646 242.973 83.292 242.953 85.938 242.937L88.225 242.912C90.15 242.903 92.075 242.948 94 243C96.039 245.039 95.185 249.279 95.211 252.086L95.297 257.094C95.338 259.736 95.375 262.378 95.401 265.021C95.429 267.564 95.475 270.106 95.524 272.648L95.534 275.045C95.6 279.257 95.6 279.257 97.34 282.995C100.003 284.608 102.427 284.434 105.5 284.438L108.969 284.496C111.988 284.283 111.988 284.283 113.657 282.499C115.576 278.928 115.48 275.475 115.512 271.516L115.566 269.044C115.62 266.446 115.654 263.848 115.688 261.25C115.721 259.486 115.755 257.721 115.791 255.957C115.878 251.638 115.938 247.32 116 243H133L133.113 251.207C133.16 253.828 133.211 256.449 133.262 259.071C133.296 260.893 133.324 262.716 133.346 264.538C133.38 267.158 133.432 269.776 133.488 272.395L133.508 274.866C133.505 279.08 133.505 279.08 135.353 282.714C137.82 284.64 139.855 284.398 142.938 284.375L146.09 284.398C149.523 283.928 150.652 283.547 153 281C153.426 278.015 153.605 275.384 153.609 272.395L153.66 269.851C153.708 267.172 153.729 264.493 153.75 261.812C153.778 259.995 153.808 258.178 153.84 256.361C153.917 251.907 153.958 247.455 154 243H171C171.099 248.674 171.172 254.348 171.22 260.023C171.24 261.95 171.267 263.877 171.302 265.804C171.351 268.587 171.373 271.369 171.391 274.152L171.453 276.729C171.456 283.516 169.981 289.723 165.308 294.86C158.633 301.1 151.987 302.511 143.125 302.438L140.559 302.498C135.814 302.494 132.627 301.991 128.43 299.723C125.238 298.114 125.238 298.114 121.809 298.6C120.31 299.348 118.825 300.122 117.352 300.92C113.213 302.821 108.928 302.678 104.438 302.75L101.67 302.84C99.447 302.91 97.224 302.963 95 303L94.49 305.078C92.363 313.458 88.365 320.204 81 325C73.655 329.294 66.9401 329.611 58.562 329.5L55.037 329.547C46.465 329.508 39.4611 328.207 32.4141 323.141C25.2631 315.583 21.828 308.755 21.902 298.27L21.907 295.996C21.912 293.601 21.925 291.207 21.937 288.812L21.951 283.939C21.961 279.96 21.981 275.98 22 272H39L39.113 278.605C39.16 280.727 39.2111 282.848 39.2631 284.97C39.2961 286.439 39.323 287.909 39.347 289.378C39.38 291.496 39.432 293.613 39.488 295.73L39.5681 299.587C40.0271 303.209 40.815 305.108 43 308C48.02 311.467 52.685 311.457 58.563 311.375L61.1 311.41C65.896 311.387 69.096 311.081 73 308C77.02 303.693 77.1161 298.973 77.2051 293.292L77.265 289.895L77.3161 286.262L77.379 282.517C77.434 279.243 77.484 275.97 77.532 272.697C77.582 269.352 77.6381 266.007 77.6931 262.662C77.8001 256.108 77.903 249.554 78 243Z" fill="#76AC42"/>
<path d="M666.251 -0.26702L668.799 -0.29302L671.57 -0.29102L674.508 -0.31102C677.714 -0.33002 680.919 -0.33402 684.125 -0.33602L690.805 -0.35602C695.472 -0.36802 700.139 -0.37202 704.807 -0.37102C710.793 -0.37102 716.778 -0.39802 722.764 -0.43202C727.362 -0.45402 731.96 -0.45802 736.558 -0.45702C738.765 -0.46002 740.973 -0.46902 743.18 -0.48402C746.263 -0.50402 749.346 -0.49802 752.43 -0.48602L755.201 -0.52002C761.332 -0.45902 761.332 -0.45902 764.567 1.76398C766.127 4.19798 766.501 5.40098 766.502 8.26198L766.53 10.78L766.496 13.473L766.501 16.259C766.499 18.1997 766.487 20.1404 766.467 22.081C766.443 25.0546 766.441 28.0283 766.459 31.002C766.453 32.888 766.444 34.774 766.434 36.66L766.443 39.36L766.404 41.867L766.388 44.072C765.878 46.605 764.999 47.39 763 49C761.028 49.375 761.028 49.375 758.742 49.374L756.112 49.395L753.236 49.372L750.2 49.383C746.882 49.391 743.564 49.378 740.246 49.363C737.946 49.363 735.646 49.363 733.345 49.365C728.523 49.365 723.7 49.355 718.877 49.336C712.684 49.3159 706.49 49.3106 700.297 49.32C695.548 49.323 690.798 49.316 686.048 49.307C683.763 49.303 681.479 49.302 679.195 49.303C676.008 49.303 672.821 49.291 669.635 49.275L666.752 49.282L664.131 49.261L661.846 49.254C660 49 660 49 658 47C657.76 45.051 657.76 45.051 657.773 42.642V39.912L657.805 36.961L657.813 33.943C657.824 30.753 657.85 27.564 657.875 24.375L657.902 17.898C657.924 12.598 657.958 7.29898 658 1.99998C660.879 0.36798 662.949 -0.25202 666.251 -0.26702Z" fill="#2D4B74"/>
<path d="M230.598 215.902C232.086 215.909 233.574 215.921 235.062 215.938L237.361 215.951C239.241 215.963 241.12 215.981 243 216L243.025 218.403C243.102 225.877 243.19 233.352 243.288 240.826C243.337 244.669 243.384 248.512 243.422 252.354C243.459 256.063 243.505 259.772 243.558 263.481C243.577 264.895 243.592 266.31 243.603 267.725C243.62 269.707 243.65 271.689 243.681 273.671L243.722 277.089C243.992 279.919 244.532 281.597 246 284C248.918 284.108 251.831 284.187 254.75 284.25L257.25 284.352L259.672 284.391L261.894 284.454C265.08 283.767 266.124 282.66 268 280C268.418 277.053 268.605 274.464 268.609 271.516L268.659 269.044C268.708 266.446 268.729 263.848 268.75 261.25C268.778 259.486 268.808 257.721 268.84 255.957C268.914 251.638 268.963 247.319 269 243C271.646 242.973 274.292 242.953 276.938 242.938L279.225 242.912C281.15 242.903 283.075 242.948 285 243C287.066 245.066 286.213 249.432 286.238 252.277L286.263 254.824C286.277 256.612 286.287 258.401 286.295 260.189C286.312 262.895 286.356 265.6 286.4 268.307C286.579 287.901 286.579 287.901 280.308 294.885C272.747 302.131 264.967 302.476 254.938 302.375L251.428 302.41C245.491 302.39 241.16 302.258 236 299C233.614 299.217 232.128 299.933 230.011 301.039C225.631 302.437 221.456 302.246 216.887 302.195L213.949 302.187C210.861 302.176 207.775 302.15 204.688 302.125L198.396 302.098C193.264 302.076 188.132 302.041 183 302V286C186.257 284.372 189.856 284.8 193.438 284.754L198.586 284.654C201.298 284.607 204.011 284.562 206.724 284.523C209.337 284.484 211.95 284.432 214.562 284.379L217.031 284.353C221.487 284.434 221.487 284.434 225 282C225.326 279.175 225.326 279.175 225.303 275.822L225.353 271.889L225.379 267.621L225.43 263.265C225.476 259.44 225.511 255.615 225.543 251.789C225.594 245.662 225.659 239.536 225.731 233.409C225.754 231.263 225.77 229.118 225.786 226.972L225.826 223.049L225.855 219.574C226.081 215.562 226.418 216.016 230.598 215.902Z" fill="#76AC42"/>
<path d="M898.938 91.688L901.975 91.6L904.902 91.574L907.574 91.53C910 92 910 92 912.288 93.448C914.857 97.277 914.555 100.74 914.496 105.254L914.501 107.973C914.499 109.867 914.487 111.76 914.467 113.654C914.443 116.555 914.441 119.456 914.459 122.357C914.453 124.198 914.444 126.038 914.434 127.879L914.442 130.512L914.404 132.959L914.388 135.11C913.873 137.617 913.051 138.494 911 140C909.065 140.388 909.065 140.388 906.852 140.404L904.333 140.442L901.625 140.434L898.834 140.449C896.887 140.456 894.941 140.455 892.994 140.446C890.011 140.438 887.03 140.466 884.047 140.498C882.156 140.5 880.266 140.499 878.375 140.496L875.667 140.53C869.55 140.461 869.55 140.461 866.941 138.274C865.193 134.049 865.53 129.825 865.562 125.312L865.502 122.416C865.509 112.788 868.55 105.773 875.062 98.726C882.116 92.441 889.889 91.774 898.938 91.688Z" fill="#2D4B74"/>
<path d="M21 198H39V220H61V238H39V260H21V238H0V220H21V198ZM189.371 215.863L191.5 215.875L193.629 215.863C198.873 215.873 198.873 215.873 200 217C200.093 218.657 200.117 220.319 200.114 221.979L200.113 225.194L200.098 228.691L200.093 232.252C200.088 236.022 200.075 239.792 200.063 243.562L200.049 251.209C200.038 257.473 200.021 263.736 200 270H183C182.975 262.47 182.957 254.941 182.945 247.411C182.94 244.847 182.933 242.283 182.925 239.719C182.913 236.043 182.907 232.367 182.902 228.691L182.887 225.194L182.886 221.979L182.88 219.132C183.12 214.881 185.718 215.87 189.371 215.863ZM256 313C260.539 312.975 265.078 312.957 269.617 312.945C271.162 312.94 272.707 312.933 274.253 312.925C276.469 312.912 278.686 312.907 280.902 312.902L283.008 312.887C284.672 312.886 286.337 312.938 288 313C289.908 314.908 289.131 318.315 289.133 320.844L289.136 322.917C289.136 324.367 289.135 325.816 289.13 327.265C289.125 329.491 289.13 331.716 289.137 333.941C289.136 336.646 289.134 339.352 289.129 342.057C289 345 289 345 288 346C285.301 346.073 282.635 346.092 279.938 346.062L272 346V330C267.108 330.04 267.108 330.04 262.217 330.09C260.478 330.097 258.739 330.05 257 330C256 329 256 329 255.902 325.402C255.909 323.914 255.921 322.426 255.938 320.937L255.951 318.639C255.963 316.759 255.981 314.88 256 313Z" fill="#76AC42"/>
</g>
</g>
<defs>
<clipPath id="clip0_361_22">
<rect width="916" height="356" fill="white"/>
</clipPath>
</defs>
</svg>
