<svg width="916" height="356" viewBox="0 0 916 356" fill="none" xmlns="http://www.w3.org/2000/svg">
<g clip-path="url(#clip0_3_21)">
<path d="M891.076 0.759766C893.259 0.749957 895.442 0.718799 897.625 0.6875C899.026 0.680977 900.427 0.675724 901.828 0.671875C903.714 0.657856 903.714 0.657856 905.638 0.643555C909.282 1.02989 911.111 1.78767 914 4C916.371 7.55721 916.258 9.09906 916.275 13.3198C916.284 14.6248 916.294 15.9298 916.304 17.2744C916.303 18.7012 916.302 20.1279 916.301 21.5547C916.305 23.0182 916.309 24.4816 916.314 25.9451C916.321 29.0134 916.321 32.0816 916.316 35.1499C916.31 39.0764 916.327 43.0024 916.35 46.9288C916.365 49.952 916.366 52.9751 916.363 55.9984C916.363 57.4457 916.368 58.8929 916.378 60.3401C916.391 62.3672 916.382 64.3943 916.372 66.4214C916.373 67.5737 916.374 68.726 916.374 69.9133C915.922 73.6425 914.676 76.3244 912 79C910.215 79.1219 908.426 79.1798 906.637 79.2109C905.521 79.2393 904.405 79.2677 903.256 79.2969C900.92 79.348 898.584 79.3925 896.248 79.4297C884.493 79.7516 872.416 81.4588 863.25 89.375C856.142 97.668 854.685 105.317 854.748 115.983C854.745 116.841 854.743 117.698 854.739 118.582C854.732 121.431 854.738 124.279 854.745 127.128C854.742 129.18 854.738 131.233 854.734 133.285C854.726 137.691 854.723 142.098 854.726 146.505C854.728 153.471 854.714 160.438 854.697 167.405C854.65 187.211 854.626 207.017 854.619 226.823C854.615 237.771 854.597 248.719 854.564 259.668C854.544 266.595 854.541 273.522 854.552 280.45C854.555 284.753 854.541 289.057 854.522 293.361C854.517 295.359 854.518 297.356 854.527 299.354C854.538 302.078 854.525 304.801 854.506 307.525C854.515 308.317 854.524 309.11 854.533 309.926C854.482 313.626 854.115 315.813 852.158 318.991C849.194 321.75 847.378 321.616 843.367 321.599C842.381 321.605 842.381 321.605 841.375 321.611C839.208 321.618 837.042 321.589 834.875 321.559C833.366 321.554 831.856 321.552 830.347 321.552C827.186 321.545 824.026 321.523 820.865 321.487C816.817 321.442 812.769 321.427 808.72 321.423C805.604 321.419 802.488 321.404 799.372 321.384C797.879 321.376 796.387 321.369 794.894 321.364C792.807 321.355 790.72 321.333 788.633 321.306C787.446 321.296 786.259 321.285 785.036 321.274C782.04 321.004 780.388 320.806 778 319C775.677 314.631 775.719 310.369 775.746 305.541C775.743 304.691 775.74 303.841 775.737 302.965C775.729 300.119 775.735 297.272 775.741 294.425C775.739 292.383 775.735 290.341 775.731 288.299C775.721 282.748 775.725 277.198 775.731 271.648C775.736 265.829 775.732 260.01 775.729 254.191C775.725 244.405 775.73 234.62 775.739 224.835C775.75 213.556 775.747 202.276 775.736 190.997C775.726 181.296 775.725 171.594 775.73 161.893C775.734 156.107 775.734 150.322 775.727 144.536C775.722 139.082 775.726 133.629 775.737 128.176C775.74 126.186 775.739 124.197 775.735 122.208C775.704 106.95 775.97 91.5495 780.625 76.875C780.885 76.0408 781.145 75.2066 781.413 74.3472C790.747 45.7645 813.003 24.9346 839 11C855.318 2.72497 873.048 0.808798 891.076 0.759766Z" fill="white"/>
<path d="M614.453 0.684326C616.592 0.687545 618.73 0.663698 620.869 0.638672C622.247 0.636403 623.626 0.635693 625.004 0.636719C626.229 0.633738 627.455 0.630757 628.717 0.627686C633.258 1.14269 635.813 2.81337 639 6C639.267 8.78841 639.267 8.78841 639.291 12.3899C639.297 13.0454 639.304 13.7009 639.311 14.3763C639.33 16.5491 639.334 18.7216 639.336 20.8945C639.342 22.4043 639.349 23.914 639.356 25.4238C639.368 28.5922 639.372 31.7605 639.371 34.929C639.37 38.9845 639.398 43.0393 639.432 47.0947C639.454 50.2148 639.458 53.3349 639.457 56.4551C639.46 57.9498 639.469 59.4445 639.484 60.9392C639.504 63.0339 639.498 65.1271 639.486 67.2219C639.489 68.4128 639.492 69.6037 639.494 70.8306C638.9 74.6419 637.718 76.308 635 79C632.35 79.6118 632.35 79.6118 629.344 79.6016C628.238 79.617 627.132 79.6325 625.992 79.6484C624.84 79.6407 623.687 79.633 622.5 79.625C609.597 79.625 596.279 80.5744 586.219 89.5977C580.15 96.1276 578.546 103.283 578.621 111.939C578.615 113.236 578.615 113.236 578.608 114.56C578.596 117.439 578.606 120.318 578.615 123.198C578.611 125.27 578.606 127.342 578.599 129.414C578.587 133.866 578.585 138.317 578.589 142.769C578.596 149.807 578.58 156.845 578.561 163.883C578.52 180.089 578.508 196.295 578.497 212.5C578.487 227.363 578.47 242.226 578.429 257.089C578.411 264.087 578.407 271.086 578.414 278.084C578.416 282.433 578.405 286.781 578.391 291.13C578.387 293.149 578.388 295.167 578.395 297.185C578.403 299.938 578.393 302.69 578.379 305.442C578.389 306.644 578.389 306.644 578.399 307.869C578.34 313.691 577.079 316.921 573 321C570.212 321.267 570.212 321.267 566.61 321.291C565.955 321.297 565.299 321.304 564.624 321.311C562.451 321.33 560.278 321.334 558.105 321.336C556.596 321.342 555.086 321.349 553.576 321.356C550.408 321.368 547.239 321.372 544.071 321.371C540.016 321.37 535.961 321.398 531.905 321.432C528.785 321.454 525.665 321.458 522.545 321.457C521.05 321.46 519.555 321.469 518.061 321.484C515.966 321.504 513.873 321.498 511.778 321.486C510.587 321.489 509.396 321.492 508.169 321.494C504.171 320.871 502.757 319.965 500 317C499.504 313.896 499.332 311.341 499.379 308.237C499.372 307.342 499.366 306.447 499.359 305.526C499.344 302.521 499.364 299.517 499.385 296.513C499.381 294.361 499.376 292.209 499.368 290.057C499.354 284.203 499.371 278.349 499.394 272.495C499.414 266.362 499.408 260.229 499.406 254.096C499.406 243.782 499.426 233.469 499.458 223.156C499.495 211.261 499.504 199.367 499.497 187.472C499.49 176.013 499.501 164.554 499.521 153.095C499.529 148.229 499.532 143.363 499.53 138.498C499.529 132.749 499.543 127 499.569 121.251C499.576 119.152 499.578 117.053 499.575 114.953C499.539 87.2894 505.495 62.4228 524 41C524.553 40.3142 525.106 39.6284 525.676 38.9219C532.965 30.0847 542.444 23.2137 552 17C553.002 16.34 554.003 15.68 555.035 15C561.775 10.8375 568.413 7.9282 576 5.625C576.782 5.38644 577.563 5.14789 578.369 4.9021C590.226 1.53848 602.196 0.645706 614.453 0.684326Z" fill="#79AF42"/>
<path d="M660.162 59.746C661.47 59.7376 661.47 59.7376 662.804 59.7289C663.763 59.733 664.722 59.737 665.71 59.7412C667.223 59.736 667.223 59.736 668.766 59.7306C672.112 59.7218 675.458 59.7276 678.805 59.7344C681.124 59.733 683.443 59.7311 685.763 59.7286C690.63 59.7256 695.497 59.7299 700.365 59.7393C706.608 59.7506 712.852 59.7441 719.095 59.7321C723.887 59.7249 728.679 59.7272 733.471 59.7324C735.774 59.7337 738.076 59.7321 740.378 59.7274C743.596 59.7223 746.813 59.7301 750.031 59.7412C750.986 59.7372 751.941 59.7331 752.925 59.7289C753.802 59.7346 754.68 59.7402 755.584 59.746C756.725 59.7472 756.725 59.7472 757.889 59.7483C760.385 60.0459 761.907 60.6032 764 62C766.335 65.28 766.251 68.3148 766.254 72.2578C766.262 74.1876 766.262 74.1876 766.271 76.1564C766.267 77.5805 766.263 79.0046 766.259 80.4287C766.262 81.9304 766.265 83.4321 766.269 84.9338C766.279 89.0151 766.275 93.0964 766.269 97.1777C766.264 101.461 766.268 105.744 766.271 110.028C766.275 117.234 766.27 124.44 766.261 131.646C766.25 139.941 766.253 148.237 766.264 156.532C766.274 163.674 766.275 170.815 766.27 177.957C766.266 182.213 766.266 186.469 766.273 190.725C766.278 194.741 766.274 198.756 766.263 202.771C766.26 204.232 766.261 205.693 766.265 207.153C766.344 235.56 759.985 262.773 740 284C739.181 284.897 738.363 285.794 737.52 286.719C717.061 308.236 690.551 321.356 660.749 322.233C656.895 322.321 653.042 322.353 649.188 322.375C648.426 322.383 647.665 322.391 646.88 322.399C644.684 322.417 642.489 322.412 640.293 322.398C639.009 322.395 637.726 322.392 636.403 322.388C632.753 321.972 630.895 321.219 628 319C625.644 315.466 625.742 313.975 625.725 309.788C625.711 307.865 625.711 307.865 625.696 305.904C625.697 304.502 625.698 303.101 625.699 301.699C625.695 300.261 625.691 298.822 625.686 297.383C625.679 294.366 625.679 291.349 625.684 288.332C625.69 284.475 625.673 280.619 625.65 276.762C625.635 273.79 625.634 270.817 625.638 267.844C625.637 266.423 625.632 265.002 625.622 263.58C625.609 261.587 625.618 259.594 625.628 257.6C625.627 256.468 625.626 255.336 625.626 254.169C626.055 250.537 627.115 248.118 629 245C631.645 243.678 633.685 243.856 636.645 243.824C659.958 243.813 659.958 243.813 680 233C687.292 224.365 687.312 214.332 687.414 203.531C687.433 202.255 687.453 200.979 687.473 199.664C687.522 196.298 687.564 192.931 687.601 189.564C687.641 186.118 687.692 182.672 687.742 179.227C687.838 172.484 687.923 165.742 688 159C687.041 159.01 686.082 159.021 685.094 159.032C681.542 159.068 677.99 159.091 674.438 159.11C672.9 159.12 671.361 159.134 669.823 159.151C667.614 159.175 665.405 159.186 663.195 159.195C662.506 159.206 661.816 159.216 661.106 159.227C659.402 159.227 657.699 159.122 656 159C653.341 156.341 653.754 154.362 653.729 150.745C653.733 149.867 653.737 148.989 653.741 148.084C653.738 147.16 653.734 146.237 653.731 145.285C653.722 142.221 653.728 139.158 653.734 136.094C653.733 133.971 653.731 131.849 653.729 129.727C653.726 125.275 653.73 120.823 653.739 116.371C653.751 110.654 653.744 104.937 653.732 99.22C653.725 94.8364 653.727 90.4528 653.732 86.0692C653.734 83.9608 653.732 81.8523 653.727 79.7439C653.722 76.8012 653.73 73.8587 653.741 70.916C653.737 70.038 653.733 69.16 653.729 68.2554C653.77 62.4643 653.973 59.7522 660.162 59.746Z" fill="white"/>
<path d="M423.212 0.725342C424.494 0.71581 425.776 0.706278 427.096 0.696457C428.498 0.696719 429.899 0.697656 431.301 0.699219C432.739 0.695331 434.178 0.690996 435.617 0.686234C438.634 0.67877 441.651 0.679063 444.668 0.684326C448.525 0.69011 452.381 0.673218 456.238 0.649982C459.21 0.63521 462.183 0.634378 465.156 0.637492C466.577 0.63698 467.998 0.631768 469.42 0.62168C471.413 0.609271 473.406 0.61807 475.4 0.627686C476.532 0.627056 477.664 0.626427 478.831 0.625779C482.463 1.05469 484.882 2.11538 488 4C489.407 6.81308 489.136 9.15296 489.147 12.3008C489.151 12.9547 489.155 13.6086 489.158 14.2823C489.169 16.4844 489.173 18.6864 489.177 20.8884C489.183 22.4638 489.19 24.0391 489.197 25.6145C489.218 30.8042 489.228 35.9939 489.238 41.1836C489.242 42.9743 489.246 44.7649 489.251 46.5556C489.27 54.9827 489.284 63.4099 489.292 71.837C489.302 81.53 489.328 91.2227 489.369 100.916C489.399 108.424 489.414 115.933 489.417 123.441C489.419 127.916 489.428 132.391 489.453 136.865C489.651 173.597 484.939 203.078 458.438 230.938C443.469 245.517 425.41 256.387 405 261C403.864 261.257 403.864 261.257 402.704 261.519C394.834 263.127 387.113 263.344 379.102 263.371C377.694 263.38 376.287 263.389 374.88 263.398C371.954 263.415 369.027 263.423 366.101 263.426C362.358 263.431 358.617 263.469 354.874 263.514C351.978 263.544 349.082 263.551 346.186 263.552C344.805 263.556 343.425 263.569 342.045 263.59C340.12 263.617 338.194 263.609 336.268 263.599C334.629 263.607 334.629 263.607 332.957 263.615C328.909 262.773 327.453 261.288 325 258C324.379 254.889 324.379 254.889 324.385 251.361C324.379 250.715 324.374 250.069 324.368 249.403C324.356 247.278 324.38 245.156 324.406 243.031C324.408 241.548 324.408 240.065 324.406 238.582C324.408 235.478 324.426 232.375 324.458 229.272C324.498 225.301 324.502 221.33 324.495 217.359C324.491 214.298 324.504 211.237 324.521 208.176C324.528 206.712 324.531 205.248 324.53 203.784C324.532 201.735 324.553 199.687 324.58 197.639C324.589 196.475 324.597 195.311 324.606 194.111C325.042 190.668 325.94 188.768 328 186C330.48 184.76 332.159 184.862 334.934 184.842C335.962 184.832 336.991 184.822 338.051 184.811C339.168 184.804 340.286 184.797 341.438 184.789C343.801 184.761 346.164 184.732 348.527 184.703C352.255 184.662 355.983 184.625 359.711 184.599C363.308 184.571 366.904 184.525 370.5 184.477C372.152 184.472 372.152 184.472 373.838 184.467C384.795 184.294 394.187 181.7 403 175C408.343 169.444 410.247 163.169 410.258 155.51C410.265 154.223 410.272 152.936 410.279 151.611C410.277 150.197 410.274 148.783 410.271 147.369C410.276 145.871 410.281 144.372 410.287 142.874C410.299 139.654 410.304 136.434 410.305 133.214C410.307 128.121 410.325 123.027 410.346 117.934C410.395 105.285 410.426 92.6363 410.447 79.9872C410.464 70.1523 410.486 60.3174 410.53 50.4826C410.552 45.4213 410.56 40.3602 410.558 35.2989C410.559 32.1486 410.573 28.9985 410.591 25.8483C410.596 24.3899 410.597 22.9314 410.592 21.4729C410.586 19.4785 410.6 17.484 410.615 15.4896C410.618 13.8172 410.618 13.8172 410.621 12.111C411.062 8.48975 412.102 6.10298 414 3C417.534 0.644032 419.025 0.742417 423.212 0.725342Z" fill="#79AF42"/>
<path d="M327 273C329.63 272.625 329.63 272.625 333.036 272.626C334.323 272.619 335.61 272.612 336.936 272.605C338.371 272.612 339.806 272.62 341.24 272.628C342.745 272.625 344.249 272.622 345.753 272.617C349.846 272.607 353.939 272.617 358.032 272.63C362.309 272.641 366.585 272.637 370.862 272.635C378.044 272.634 385.227 272.645 392.41 272.664C400.722 272.685 409.035 272.688 417.348 272.682C425.333 272.677 433.319 272.682 441.304 272.693C444.708 272.698 448.111 272.699 451.515 272.697C455.52 272.695 459.526 272.703 463.531 272.719C465.004 272.723 466.477 272.724 467.95 272.721C469.955 272.718 471.96 272.728 473.964 272.739C475.65 272.742 475.65 272.742 477.37 272.746C480 273 480 273 482 275C482.254 276.853 482.254 276.853 482.259 279.127C482.265 279.978 482.271 280.829 482.278 281.706C482.272 283.087 482.272 283.087 482.266 284.496C482.268 285.441 482.269 286.385 482.271 287.358C482.273 289.358 482.269 291.358 482.261 293.358C482.25 296.422 482.261 299.485 482.273 302.549C482.272 304.49 482.27 306.43 482.266 308.371C482.27 309.29 482.274 310.209 482.278 311.155C482.268 312.437 482.268 312.437 482.259 313.744C482.257 314.495 482.256 315.246 482.254 316.02C482 318 482 318 480 321C477.37 321.378 477.37 321.378 473.964 321.381C472.677 321.389 471.39 321.398 470.064 321.407C468.629 321.401 467.194 321.395 465.76 321.388C464.255 321.392 462.751 321.398 461.247 321.404C457.154 321.418 453.061 321.412 448.968 321.403C444.691 321.395 440.415 321.402 436.138 321.407C428.956 321.413 421.773 321.405 414.59 321.391C406.278 321.375 397.965 321.38 389.652 321.397C382.525 321.41 375.397 321.412 368.269 321.404C364.008 321.4 359.747 321.399 355.485 321.409C351.48 321.418 347.475 321.412 343.469 321.394C341.996 321.39 340.523 321.391 339.05 321.398C337.045 321.406 335.04 321.394 333.036 321.381C331.912 321.38 330.788 321.379 329.63 321.378C328.328 321.191 328.328 321.191 327 321C324.955 317.933 324.749 317.308 324.741 313.852C324.735 313.021 324.729 312.19 324.722 311.333C324.726 310.44 324.73 309.546 324.734 308.625C324.732 307.704 324.731 306.783 324.729 305.834C324.727 303.888 324.731 301.941 324.739 299.994C324.75 297.012 324.739 294.029 324.727 291.047C324.728 289.156 324.73 287.266 324.734 285.375C324.728 284.034 324.728 284.034 324.722 282.667C324.728 281.836 324.735 281.005 324.741 280.148C324.743 279.418 324.744 278.688 324.746 277.935C325 276 325 276 327 273Z" fill="#79AF42"/>
<path d="M78 243C80.6459 242.973 83.2916 242.953 85.9375 242.937C86.6923 242.929 87.447 242.921 88.2246 242.912C90.15 242.903 92.0754 242.948 94 243C96.039 245.039 95.1852 249.279 95.211 252.086C95.239 253.755 95.2677 255.424 95.2969 257.094C95.3382 259.736 95.3751 262.378 95.4014 265.021C95.429 267.564 95.4748 270.106 95.5235 272.648C95.5267 273.439 95.53 274.23 95.5333 275.045C95.6002 279.257 95.6002 279.257 97.3404 282.995C100.003 284.608 102.427 284.434 105.5 284.438C106.645 284.457 107.789 284.476 108.969 284.496C111.988 284.283 111.988 284.283 113.657 282.499C115.576 278.928 115.48 275.475 115.512 271.516C115.539 270.292 115.539 270.292 115.566 269.044C115.62 266.446 115.654 263.848 115.688 261.25C115.721 259.486 115.755 257.721 115.791 255.957C115.878 251.638 115.938 247.32 116 243C121.61 243 127.22 243 133 243C133.056 247.062 133.056 247.062 133.113 251.207C133.16 253.828 133.211 256.449 133.262 259.071C133.296 260.893 133.324 262.716 133.346 264.538C133.38 267.158 133.432 269.776 133.488 272.395C133.495 273.21 133.501 274.026 133.508 274.866C133.505 279.08 133.505 279.08 135.353 282.714C137.82 284.64 139.855 284.398 142.938 284.375C144.498 284.387 144.498 284.387 146.09 284.398C149.523 283.928 150.652 283.547 153 281C153.426 278.015 153.605 275.384 153.609 272.395C153.626 271.555 153.642 270.716 153.66 269.851C153.708 267.172 153.729 264.493 153.75 261.812C153.778 259.995 153.808 258.178 153.84 256.361C153.917 251.907 153.958 247.455 154 243C159.61 243 165.22 243 171 243C171.099 248.674 171.172 254.348 171.22 260.023C171.24 261.95 171.267 263.877 171.302 265.804C171.351 268.587 171.373 271.369 171.391 274.152C171.411 275.003 171.432 275.853 171.453 276.729C171.456 283.516 169.981 289.723 165.308 294.86C158.633 301.1 151.987 302.511 143.125 302.438C141.855 302.467 141.855 302.467 140.559 302.498C135.814 302.494 132.627 301.991 128.43 299.723C125.238 298.114 125.238 298.114 121.809 298.6C120.31 299.348 118.825 300.122 117.352 300.92C113.213 302.821 108.928 302.678 104.438 302.75C103.524 302.78 102.611 302.809 101.67 302.84C99.4466 302.91 97.2242 302.963 95 303C94.7472 304.028 94.7472 304.028 94.4893 305.078C92.3642 313.458 88.3659 320.204 81 325C73.6554 329.294 66.9397 329.611 58.5625 329.5C56.8175 329.523 56.8175 329.523 55.0371 329.547C46.4645 329.508 39.4608 328.207 32.4141 323.141C25.2627 315.583 21.8281 308.755 21.9024 298.27C21.9038 297.519 21.9052 296.769 21.9067 295.996C21.9122 293.601 21.9248 291.207 21.9375 288.812C21.9425 287.188 21.9471 285.564 21.9512 283.939C21.9614 279.96 21.9809 275.98 22 272C27.61 272 33.22 272 39 272C39.0374 274.18 39.0748 276.36 39.1133 278.605C39.1596 280.727 39.2108 282.848 39.2625 284.97C39.2956 286.439 39.3237 287.909 39.3465 289.378C39.3802 291.496 39.4325 293.613 39.4883 295.73C39.5145 297.003 39.5407 298.276 39.5676 299.587C40.0265 303.209 40.8154 305.108 43 308C48.0195 311.467 52.6846 311.457 58.5625 311.375C59.8184 311.392 59.8184 311.392 61.0996 311.41C65.8964 311.387 69.0961 311.081 73 308C77.0202 303.693 77.1156 298.973 77.2053 293.292C77.2253 292.171 77.2452 291.05 77.2658 289.895C77.2825 288.696 77.2992 287.497 77.3164 286.262C77.3372 285.026 77.358 283.79 77.3794 282.517C77.4336 279.243 77.4839 275.97 77.5322 272.697C77.5826 269.352 77.6383 266.007 77.6934 262.662C77.8004 256.108 77.9022 249.554 78 243Z" fill="#76AC42"/>
<path d="M666.251 -0.267426C667.092 -0.275956 667.933 -0.284485 668.799 -0.293274C669.714 -0.292368 670.628 -0.291461 671.57 -0.290527C672.54 -0.297245 673.509 -0.303962 674.508 -0.310883C677.714 -0.329885 680.919 -0.333788 684.125 -0.335938C686.352 -0.342363 688.578 -0.349091 690.805 -0.35611C695.472 -0.368087 700.139 -0.37179 704.807 -0.370605C710.793 -0.370402 716.778 -0.397732 722.764 -0.43215C727.362 -0.454363 731.96 -0.458445 736.558 -0.457386C738.765 -0.459749 740.973 -0.468614 743.18 -0.484051C746.263 -0.503602 749.346 -0.497916 752.43 -0.48584C753.344 -0.497079 754.259 -0.508318 755.201 -0.519897C761.332 -0.458742 761.332 -0.458742 764.567 1.76399C766.127 4.19797 766.501 5.40078 766.502 8.26196C766.511 9.09285 766.52 9.92374 766.53 10.7798C766.519 11.6684 766.508 12.5571 766.496 13.4727C766.498 14.3921 766.499 15.3116 766.501 16.2589C766.499 18.1997 766.487 20.1406 766.467 22.0813C766.438 25.0554 766.446 28.0278 766.459 31.002C766.453 32.888 766.444 34.7741 766.434 36.6602C766.437 37.5508 766.439 38.4415 766.443 39.3591C766.43 40.1869 766.417 41.0146 766.404 41.8674C766.399 42.5948 766.393 43.3222 766.388 44.0717C765.878 46.6051 764.999 47.3901 763 49C761.028 49.3747 761.028 49.3747 758.742 49.3742C757.875 49.3812 757.007 49.3883 756.112 49.3955C755.163 49.3878 754.214 49.3802 753.236 49.3723C752.234 49.376 751.232 49.3796 750.2 49.3834C746.882 49.3915 743.564 49.3779 740.246 49.3633C737.946 49.3628 735.646 49.3633 733.345 49.3648C728.523 49.3647 723.7 49.3543 718.877 49.3362C712.684 49.3135 706.491 49.313 700.297 49.3197C695.548 49.323 690.798 49.3164 686.048 49.3066C683.763 49.3027 681.479 49.3016 679.195 49.3032C676.008 49.3035 672.821 49.2909 669.635 49.2747C668.208 49.2784 668.208 49.2784 666.752 49.2822C665.887 49.2751 665.022 49.268 664.131 49.2607C663.377 49.2586 662.623 49.2566 661.846 49.2545C660 49 660 49 658 47C657.76 45.0511 657.76 45.0511 657.773 42.6421C657.773 41.7413 657.773 40.8405 657.773 39.9124C657.784 38.9384 657.794 37.9645 657.805 36.9609C657.808 35.9649 657.81 34.969 657.813 33.9428C657.824 30.7534 657.85 27.5643 657.875 24.375C657.885 22.2161 657.894 20.0573 657.902 17.8984C657.924 12.5989 657.958 7.29945 658 2C660.879 0.367785 662.949 -0.252236 666.251 -0.267426Z" fill="white"/>
<path d="M230.598 215.902C232.086 215.909 233.574 215.921 235.062 215.938C235.821 215.942 236.58 215.947 237.361 215.951C239.241 215.963 241.12 215.981 243 216C243.012 217.189 243.012 217.189 243.025 218.403C243.102 225.877 243.19 233.352 243.288 240.826C243.337 244.669 243.384 248.512 243.422 252.354C243.459 256.063 243.505 259.772 243.558 263.481C243.577 264.895 243.592 266.31 243.603 267.725C243.62 269.707 243.65 271.689 243.681 273.671C243.694 274.799 243.708 275.927 243.722 277.089C243.992 279.919 244.532 281.597 246 284C248.918 284.108 251.831 284.187 254.75 284.25C255.575 284.284 256.4 284.317 257.25 284.352C258.449 284.371 258.449 284.371 259.672 284.391C260.405 284.412 261.138 284.433 261.894 284.454C265.08 283.767 266.124 282.66 268 280C268.418 277.053 268.605 274.464 268.609 271.516C268.626 270.7 268.642 269.884 268.659 269.044C268.708 266.446 268.729 263.848 268.75 261.25C268.778 259.486 268.808 257.721 268.84 255.957C268.914 251.638 268.963 247.319 269 243C271.646 242.973 274.292 242.953 276.938 242.938C277.692 242.929 278.447 242.921 279.225 242.912C281.15 242.903 283.075 242.948 285 243C287.066 245.066 286.213 249.432 286.238 252.277C286.246 253.118 286.254 253.958 286.263 254.824C286.277 256.612 286.287 258.401 286.295 260.189C286.312 262.895 286.356 265.6 286.4 268.307C286.579 287.901 286.579 287.901 280.308 294.885C272.747 302.131 264.967 302.476 254.938 302.375C253.779 302.387 252.621 302.398 251.428 302.41C245.491 302.39 241.16 302.258 236 299C233.614 299.217 232.128 299.933 230.011 301.039C225.631 302.437 221.456 302.246 216.887 302.195C215.917 302.192 214.948 302.19 213.949 302.187C210.861 302.176 207.775 302.15 204.688 302.125C202.59 302.115 200.493 302.106 198.396 302.098C193.264 302.076 188.132 302.041 183 302C183 296.72 183 291.44 183 286C186.257 284.372 189.856 284.8 193.438 284.754C195.154 284.721 196.87 284.688 198.586 284.654C201.298 284.607 204.011 284.562 206.724 284.523C209.337 284.484 211.95 284.432 214.562 284.379C215.784 284.366 215.784 284.366 217.031 284.353C221.487 284.434 221.487 284.434 225 282C225.326 279.175 225.326 279.175 225.303 275.822C225.32 274.524 225.336 273.226 225.353 271.889C225.362 270.466 225.37 269.044 225.379 267.621C225.395 266.169 225.412 264.717 225.43 263.265C225.476 259.44 225.511 255.615 225.543 251.789C225.594 245.662 225.659 239.536 225.731 233.409C225.754 231.263 225.77 229.118 225.786 226.972C225.799 225.677 225.813 224.383 225.826 223.049C225.841 221.329 225.841 221.329 225.855 219.574C226.081 215.562 226.418 216.016 230.598 215.902Z" fill="#76AC42"/>
<path d="M898.938 91.6875C899.94 91.6585 900.942 91.6295 901.975 91.5996C902.941 91.5912 903.907 91.5829 904.902 91.5742C906.225 91.5523 906.225 91.5523 907.574 91.53C910 92 910 92 912.288 93.4482C914.857 97.2769 914.555 100.74 914.496 105.254C914.498 106.151 914.499 107.048 914.501 107.973C914.499 109.867 914.487 111.76 914.467 113.654C914.438 116.556 914.446 119.456 914.459 122.357C914.453 124.198 914.444 126.038 914.434 127.879C914.437 128.748 914.439 129.616 914.442 130.512C914.423 131.723 914.423 131.723 914.404 132.959C914.399 133.669 914.393 134.378 914.388 135.11C913.873 137.617 913.051 138.494 911 140C909.065 140.388 909.065 140.388 906.852 140.404C905.605 140.423 905.605 140.423 904.333 140.442C903.44 140.44 902.546 140.437 901.625 140.434C900.244 140.441 900.244 140.441 898.834 140.449C896.888 140.456 894.941 140.455 892.994 140.446C890.011 140.438 887.03 140.466 884.047 140.498C882.156 140.5 880.266 140.499 878.375 140.496C877.481 140.507 876.587 140.519 875.667 140.53C869.55 140.461 869.55 140.461 866.941 138.274C865.193 134.049 865.53 129.825 865.562 125.312C865.543 124.357 865.523 123.401 865.502 122.416C865.509 112.788 868.55 105.773 875.062 98.7266C882.116 92.4413 889.889 91.7744 898.938 91.6875Z" fill="white"/>
<path d="M21 198C26.94 198 32.88 198 39 198C39 205.26 39 212.52 39 220C46.26 220 53.52 220 61 220C61 225.94 61 231.88 61 238C53.74 238 46.48 238 39 238C39 245.26 39 252.52 39 260C33.06 260 27.12 260 21 260C21 252.74 21 245.48 21 238C14.07 238 7.14 238 0 238C0 232.06 0 226.12 0 220C6.93 220 13.86 220 21 220C21 212.74 21 205.48 21 198Z" fill="#76AC42"/>
<path d="M189.371 215.863C190.074 215.867 190.776 215.871 191.5 215.875C192.203 215.871 192.905 215.867 193.629 215.863C198.873 215.873 198.873 215.873 200 217C200.093 218.657 200.117 220.319 200.114 221.979C200.113 223.04 200.113 224.101 200.113 225.194C200.108 226.348 200.103 227.502 200.098 228.691C200.096 229.866 200.095 231.041 200.093 232.252C200.088 236.022 200.075 239.792 200.063 243.562C200.058 246.111 200.053 248.66 200.049 251.209C200.038 257.473 200.021 263.736 200 270C194.39 270 188.78 270 183 270C182.975 262.47 182.957 254.941 182.945 247.411C182.94 244.847 182.933 242.283 182.925 239.719C182.913 236.043 182.907 232.367 182.902 228.691C182.897 227.537 182.892 226.383 182.887 225.194C182.887 224.133 182.887 223.072 182.886 221.979C182.884 221.039 182.882 220.1 182.88 219.132C183.12 214.881 185.718 215.87 189.371 215.863Z" fill="#76AC42"/>
<path d="M256 313C260.539 312.975 265.078 312.957 269.617 312.945C271.162 312.94 272.707 312.933 274.253 312.925C276.469 312.912 278.686 312.907 280.902 312.902C281.597 312.897 282.292 312.892 283.008 312.887C284.672 312.886 286.337 312.938 288 313C289.908 314.908 289.131 318.315 289.133 320.844C289.134 321.528 289.135 322.212 289.136 322.917C289.136 324.367 289.135 325.816 289.13 327.265C289.125 329.491 289.13 331.716 289.137 333.941C289.136 335.346 289.135 336.751 289.133 338.156C289.132 339.443 289.131 340.73 289.129 342.057C289 345 289 345 288 346C285.301 346.073 282.635 346.092 279.938 346.062C277.318 346.042 274.699 346.021 272 346C272 340.72 272 335.44 272 330C267.108 330.04 267.108 330.04 262.217 330.09C260.478 330.097 258.739 330.05 257 330C256 329 256 329 255.902 325.402C255.909 323.914 255.921 322.426 255.938 320.937C255.942 320.179 255.947 319.42 255.951 318.639C255.963 316.759 255.981 314.88 256 313Z" fill="#76AC42"/>
</g>
<defs>
<clipPath id="clip0_3_21">
<rect width="916" height="356" fill="#2d4b74"/>
</clipPath>
</defs>
</svg>
