<svg width="176" height="176" fill="none" xmlns="http://www.w3.org/2000/svg"><path d="M88 113.667c16.207 0 29.333-13.127 29.333-29.334V44c0-16.207-13.126-29.334-29.333-29.334S58.667 27.794 58.667 44v40.333c0 16.207 13.126 29.334 29.333 29.334z" stroke="gray" stroke-width="11" stroke-linecap="round" stroke-linejoin="round"/><path d="M31.9 70.766v12.467c0 30.946 25.154 56.1 56.1 56.1 30.947 0 56.101-25.154 56.101-56.1V70.766M77.807 47.154a29.531 29.531 0 0120.387 0M82.133 62.699a23.013 23.013 0 0111.807 0M88 139.333v22" stroke="gray" stroke-width="11" stroke-linecap="round" stroke-linejoin="round"/></svg>