<svg width="42" height="41" viewBox="0 0 42 41" fill="none" xmlns="http://www.w3.org/2000/svg">
<path d="M20.5557 0.331055C31.7314 0.331069 40.7802 9.22102 40.7803 20.1748C40.7803 31.1287 31.7314 40.0195 20.5557 40.0195C9.37991 40.0195 0.331055 31.1287 0.331055 20.1748C0.33115 9.22101 9.37996 0.331055 20.5557 0.331055Z" fill="white" stroke="#CBE3EB" stroke-width="0.661475"/>
<path fill-rule="evenodd" clip-rule="evenodd" d="M23.8045 18.5135H23.6996C21.9884 18.5135 20.2777 18.7352 18.5679 19.1781L18.5457 19.1838C18.1699 19.2921 17.9111 19.6111 17.9 19.979L17.8985 20.044C17.8516 21.9737 18.3092 23.619 19.2721 24.9752C20.3236 26.4549 21.777 27.3075 23.6188 27.5239L23.6996 27.533L23.7784 27.5239C25.6212 27.3075 27.0746 26.4549 28.1256 24.9752C29.089 23.619 29.5466 21.9737 29.4997 20.0445L29.4982 19.9794L29.4972 19.9571C29.4755 19.5964 29.2191 19.2892 28.8554 19.1848L28.8332 19.1786L28.7243 19.1506C27.0842 18.7348 25.4441 18.5226 23.804 18.514L23.8045 18.5135Z" fill="#FFCA3D"/>
<path fill-rule="evenodd" clip-rule="evenodd" d="M20.4165 18.9931V13.7666L14.0264 21.4321H17.9315V26.6586L24.3216 18.9931H20.4165Z" stroke="#004157" stroke-width="0.752186" stroke-linecap="round" stroke-linejoin="round"/>
<path d="M12.2928 13.0786C12.4215 12.9518 12.6232 12.9409 12.7649 13.0439L12.8055 13.0786L14.6439 14.8825C14.7856 15.022 14.7856 15.247 14.6439 15.3861C14.5153 15.5129 14.3136 15.5238 14.1719 15.4208L14.1312 15.3861L12.2928 13.5822C12.1511 13.4422 12.1511 13.2172 12.2928 13.0786ZM14.1307 24.6263C14.2729 24.4876 14.5022 24.4876 14.6439 24.6263C14.773 24.753 14.7842 24.9505 14.6792 25.09L14.6439 25.1299L12.806 26.9343C12.6638 27.0734 12.4345 27.0734 12.2928 26.9343C12.1637 26.808 12.1526 26.6101 12.2575 26.471L12.2928 26.4306L14.1307 24.6267V24.6263ZM24.0584 24.6263C24.1875 24.5 24.3887 24.4886 24.5309 24.5921L24.5716 24.6263L26.41 26.4306C26.5517 26.5697 26.5517 26.7952 26.41 26.9343C26.2813 27.0605 26.0796 27.0719 25.9379 26.9689L25.8968 26.9343L24.0589 25.1304C23.9172 24.9908 23.9172 24.7653 24.0589 24.6263H24.0584ZM25.8968 13.0786C26.0385 12.9395 26.2682 12.9395 26.41 13.0786C26.5386 13.2048 26.5502 13.4028 26.4453 13.5419L26.41 13.5818L24.572 15.3861C24.4298 15.5252 24.2001 15.5252 24.0584 15.3861C23.9297 15.2598 23.9181 15.0619 24.0236 14.9228L24.0584 14.8829L25.8968 13.0786Z" fill="#004157"/>
</svg>
