<svg width="109" height="108" viewBox="0 0 109 108" fill="none" xmlns="http://www.w3.org/2000/svg">
<path d="M102.837 46.8937H81.6141C81.2387 46.8301 80.8584 46.8301 80.483 46.8937H79.5673C79.2856 47.0932 79.0157 47.3168 78.7593 47.5631C78.4593 47.8095 78.1717 48.0773 77.8975 48.3664C77.7176 48.6402 77.5554 48.9314 77.4127 49.2367C77.166 49.6584 76.9495 50.1062 76.7663 50.5755L68.148 80.0966L45.6864 4.45293C45.3088 3.16062 44.6204 2.04404 43.7144 1.25501C42.8088 0.465969 41.7293 0.0426331 40.6231 0.0426331C39.5169 0.0426331 38.4374 0.465969 37.5315 1.25501C36.6257 2.04404 35.9373 3.16062 35.5598 4.45293L23.1171 46.8937H5.88037C4.45177 46.8937 3.08172 47.5993 2.07154 48.8544C1.06142 50.1096 0.493896 51.8126 0.493896 53.5879C0.493896 55.3631 1.06142 57.0661 2.07154 58.3213C3.08172 59.5764 4.45177 60.282 5.88037 60.282H26.9953H28.2342H29.0422C29.3484 60.0986 29.6374 59.8743 29.904 59.6126C30.2039 59.3662 30.4917 59.0985 30.7659 58.8093L31.2506 57.9391C31.5074 57.5254 31.7243 57.0762 31.897 56.6002L40.6231 26.2758L63.0308 102.723C63.4073 104.017 64.0952 105.135 65.0012 105.925C65.9072 106.716 66.9872 107.14 68.0941 107.141C69.201 107.14 70.281 106.716 71.187 105.925C72.093 105.135 72.7809 104.017 73.1574 102.723L85.5463 60.282H102.837C104.265 60.282 105.636 59.5764 106.646 58.3213C107.656 57.0661 108.223 55.3631 108.223 53.5879C108.223 51.8126 107.656 50.1096 106.646 48.8544C105.636 47.5993 104.265 46.8937 102.837 46.8937Z" fill="#77B042"/>
</svg>
